<?xml version="1.0" encoding="UTF-8"?>
<svg version="1.1" xmlns="http://www.w3.org/2000/svg" width="500" height="500">
<path d="M0 0 C1.7813787 2.36426722 3.37174839 4.68648517 4.9375 7.1875 C5.79857793 8.53656512 6.66182329 9.88424952 7.52734375 11.23046875 C7.94097168 11.87806152 8.35459961 12.5256543 8.78076172 13.19287109 C10.10723967 15.22218049 10.10723967 15.22218049 12.31640625 17.80078125 C14 20 14 20 14 23 C14.66 23 15.32 23 16 23 C17.36132908 24.90959892 18.59377626 26.81346772 19.8125 28.8125 C23.59999864 34.86253697 27.52670845 40.80012277 31.5625 46.6875 C32.3982959 47.90771851 32.3982959 47.90771851 33.25097656 49.15258789 C36.88867346 54.4401252 40.63139463 59.63236861 44.44140625 64.796875 C46.11866056 67.16773072 47.51010711 69.59541707 48.890625 72.14453125 C50.96593224 75.61555568 53.46375734 78.7996703 55.86328125 82.05078125 C58.67034124 85.92524248 61.29792989 89.9062578 63.93359375 93.8984375 C66.08436518 97.1266275 68.28472129 100.31577434 70.5 103.5 C74.74986365 109.61332207 78.89057841 115.79152134 83 122 C83.99 123.485 83.99 123.485 85 125 C84.79634641 127.57617093 84.3383427 128.67035925 82.48120117 130.47973633 C80.39164873 131.93760646 78.30151733 133.39020837 76.1875 134.8125 C75.09985352 135.5849707 75.09985352 135.5849707 73.99023438 136.37304688 C73.28576172 136.85451172 72.58128906 137.33597656 71.85546875 137.83203125 C71.21246826 138.27264893 70.56946777 138.7132666 69.90698242 139.16723633 C68 140 68 140 65.86157227 139.76782227 C63.04917616 138.60782414 62.26476227 136.72068486 60.75 134.125 C58.33474869 130.13391308 55.83995104 126.3112404 53.0625 122.5625 C48.84181978 116.83501264 44.91422723 110.9395705 41 105 C34.7712078 95.59109626 28.44166798 86.26541285 22 77 C18.37 71.72 14.74 66.44 11 61 C11 87.73 11 114.46 11 142 C18.86106591 137.26943591 18.86106591 137.26943591 20 133.11572266 C20 132.1416748 20 131.16762695 20 130.1640625 C20.02900391 128.56884766 20.02900391 128.56884766 20.05859375 126.94140625 C20.03925781 125.84699219 20.01992187 124.75257813 20 123.625 C20.01160156 122.50738281 20.02320313 121.38976562 20.03515625 120.23828125 C20.0586431 117.4903199 20.04582407 114.747535 20 112 C23.66919928 113.69132343 25.28437218 115.3558404 27.625 118.6875 C28.31980469 119.67363281 29.01460937 120.65976563 29.73046875 121.67578125 C32.59630289 125.8496308 35.40969072 130.05886363 38.19750977 134.28515625 C40.29091425 137.45661347 42.40814575 140.60368539 44.6015625 143.70703125 C45.01543213 144.29371582 45.42930176 144.88040039 45.85571289 145.48486328 C46.99407856 147.09096527 48.13939945 148.69213105 49.28515625 150.29296875 C50.78138207 152.65489242 51.57693522 154.27285935 52 157 C52.66 157 53.32 157 54 157 C58 162.29411765 58 162.29411765 58 166 C58.66 166 59.32 166 60 166 C61.26303862 167.76069473 62.4294497 169.59047279 63.5625 171.4375 C68.03565526 178.59818668 72.74376192 185.58723602 77.5 192.5625 C78.24000244 193.64998535 78.98000488 194.7374707 79.74243164 195.85791016 C82.82294875 200.37709831 85.90843442 204.89111543 89.0625 209.359375 C89.48595703 209.96064209 89.90941406 210.56190918 90.34570312 211.18139648 C91.4015456 212.67337693 92.465965 214.15927812 93.53125 215.64453125 C94.89597678 217.83317552 95.57644704 219.47633028 96 222 C96.66 222 97.32 222 98 222 C99.50631713 224.11788189 100.8915408 226.22716421 102.25 228.4375 C105.74163298 234.02776256 109.34034918 239.51052377 113 245 C113 216.29 113 187.58 113 158 C105.03637232 162.7471497 105.03637232 162.7471497 104 167.25146484 C104 168.39309082 104 169.5347168 104 170.7109375 C103.98066406 171.95488281 103.96132813 173.19882812 103.94140625 174.48046875 C103.96074219 175.76566406 103.98007812 177.05085937 104 178.375 C103.98259766 180.33759766 103.98259766 180.33759766 103.96484375 182.33984375 C103.94132813 185.561484 103.954245 188.77872125 104 192 C103.01 192 102.02 192 101 192 C96.38443319 186.48383479 92.53802004 180.38243714 88.60327148 174.36889648 C86.73291768 171.52328413 84.87850967 168.85400568 82.6953125 166.23046875 C81 164 81 164 81 161 C80.34 161 79.68 161 79 161 C74.95916613 156.03554696 74.95916613 156.03554696 75.09765625 152.5234375 C76.28154229 149.21265662 77.73017966 148.28080705 80.625 146.3125 C81.62144531 145.62542969 82.61789062 144.93835938 83.64453125 144.23046875 C84.76176478 143.48509304 85.88030557 142.74167384 87 142 C88.19144888 141.20449093 89.38285401 140.40891632 90.57421875 139.61328125 C92.45799416 138.3578449 94.34317667 137.10474006 96.23217773 135.85717773 C100.61844898 132.95313691 104.92148978 129.95258784 109.1875 126.875 C113.3455801 123.87527518 117.53101433 120.94821399 121.8125 118.125 C126.78111747 114.84796792 131.64791016 111.44569473 136.5 108 C141.29096532 104.59826196 146.0938032 101.23485503 151 98 C155.65628748 94.92936717 160.20955356 91.73754036 164.75 88.5 C172.96944109 82.64122892 181.36236098 77.05581791 189.80175781 71.51953125 C195.85876203 67.53818676 195.85876203 67.53818676 201.51953125 63.02734375 C204 61 204 61 207 61 C207 60.34 207 59.68 207 59 C209.01953125 57.5546875 209.01953125 57.5546875 211.8125 55.875 C217.01787647 52.67221007 221.91174204 49.18868285 226.78515625 45.50390625 C229 44 229 44 231 44 C230.49059827 49.1198098 229.34669804 52.84197589 226.9375 57.375 C226.29874479 58.60050321 225.66211821 59.82711766 225.02734375 61.0546875 C224.69460449 61.6950293 224.36186523 62.33537109 224.01904297 62.99511719 C222.25988517 66.45611476 220.6354793 69.97932561 219 73.5 C216.57099248 78.70526581 214.08769657 83.87165589 211.5 89 C208.93323496 94.08696745 206.47140051 99.21156904 204.0625 104.375 C201.13529345 110.64940978 198.11275095 116.86576136 194.96508789 123.03271484 C194.34729129 124.251078 193.74739315 125.47865077 193.16392517 126.71382141 C192 129 192 129 190.50524902 131.2603302 C183.84753201 142.65047074 185.27341983 155.39085397 185.45315981 168.15973926 C185.49272672 171.58146802 185.49133473 175.00314329 185.49252319 178.42506409 C185.50332773 188.57171662 185.57464018 198.71782567 185.66314697 208.86407471 C185.7316275 216.77756451 185.78221499 224.69026902 185.7777189 232.60409695 C185.77747154 236.00299351 185.79349875 239.40017404 185.84764481 242.79867363 C185.90251192 246.58069592 185.9088683 250.35998282 185.90478516 254.14233398 C185.93362289 255.25983032 185.96246063 256.37732666 185.99217224 257.52868652 C185.91516131 264.9341196 185.91516131 264.9341196 183.22852707 268.06321907 C178.16039291 272 178.16039291 272 175 272 C175 272.66 175 273.32 175 274 C173.49047852 275.23339844 173.49047852 275.23339844 171.37890625 276.609375 C170.60740234 277.11726563 169.83589844 277.62515625 169.04101562 278.1484375 C168.22310547 278.67695313 167.40519531 279.20546875 166.5625 279.75 C165.77939453 280.26304687 164.99628906 280.77609375 164.18945312 281.3046875 C162.60281919 282.34416125 161.01376697 283.37995279 159.42236328 284.41210938 C156.19182507 286.52976917 153.00787512 288.71451657 149.82788086 290.90722656 C148 292 148 292 146 292 C146 292.66 146 293.32 146 294 C144.3828125 295.26171875 144.3828125 295.26171875 142.125 296.6875 C137.66208399 299.54037669 133.40577745 302.60615686 129.1640625 305.77734375 C128.44992187 306.18082031 127.73578125 306.58429688 127 307 C126.01 306.67 125.02 306.34 124 306 C124 305.34 124 304.68 124 304 C123.34 304 122.68 304 122 304 C118 297.25 118 297.25 118 295 C117.34 295 116.68 295 116 295 C115.505 294.071875 115.01 293.14375 114.5 292.1875 C112.60880636 288.86621647 110.45815343 285.82309795 108.1875 282.75 C104.89345345 278.28514132 101.86423711 273.72654066 98.91796875 269.02734375 C96.63586575 265.42524634 94.29750101 261.86390672 91.9375 258.3125 C91.51049805 257.66925781 91.08349609 257.02601563 90.64355469 256.36328125 C87.91124331 252.27852849 85.06846139 248.32706314 81.9609375 244.515625 C81 243 81 243 81 240 C80.34 240 79.68 240 79 240 C75 234.70588235 75 234.70588235 75 231 C74.34 231 73.68 231 73 231 C71.84375 229.55859375 71.84375 229.55859375 70.5 227.4375 C69.96890625 226.61378906 69.4378125 225.79007813 68.890625 224.94140625 C68.26671875 223.97074219 67.6428125 223.00007812 67 222 C65.42540161 219.61915671 63.83731603 217.24737737 62.25 214.875 C59.58288375 210.88042188 56.9206407 206.88280872 54.2734375 202.875 C53.82967773 202.20484863 53.38591797 201.53469727 52.92871094 200.84423828 C52.08368729 199.56784114 51.24047316 198.29024345 50.39941406 197.01123047 C48.08893655 193.52627625 45.6127853 190.26044607 43 187 C42.2583797 185.79062572 41.54406179 184.56347687 40.875 183.3125 C39.21636933 180.03833934 39.21636933 180.03833934 37 178 C37 177.01 37 176.02 37 175 C36.34 175 35.68 175 35 175 C33.71993203 173.21601386 32.52339649 171.37146094 31.375 169.5 C30.74335938 168.4790625 30.11171875 167.458125 29.4609375 166.40625 C28.73777344 165.21515625 28.73777344 165.21515625 28 164 C20.81720411 168.40586184 13.92115396 173.13061161 7.05957031 178.01464844 C0.86037745 182.41697381 -5.40246579 186.72127185 -11.6875 191 C-13.08609253 191.95229492 -13.08609253 191.95229492 -14.51293945 192.92382812 C-16.24853921 194.10371417 -17.98550663 195.28159204 -19.72412109 196.45703125 C-21.12278019 197.4052747 -22.51733234 198.35965273 -23.90478516 199.32421875 C-27.78584156 202 -27.78584156 202 -30 202 C-30 202.66 -30 203.32 -30 204 C-31.94921875 205.41015625 -31.94921875 205.41015625 -34.6875 207.0625 C-40.00368991 210.35218804 -45.14323067 213.82947636 -50.26953125 217.40625 C-55.4946392 221.0496027 -60.76268064 224.63052732 -66.02539062 228.21923828 C-73.47508164 233.3064848 -80.86550254 238.47430227 -88.2109375 243.7109375 C-89.93229167 244.93229167 -91.65364583 246.15364583 -93.375 247.375 C-94.25027344 248.00277344 -95.12554687 248.63054687 -96.02734375 249.27734375 C-96.87167969 249.87417969 -97.71601562 250.47101563 -98.5859375 251.0859375 C-99.3392334 251.6226709 -100.0925293 252.1594043 -100.86865234 252.71240234 C-102.94760178 253.96834499 -104.62599544 254.56231182 -107 255 C-106.44741601 250.41559951 -105.22306267 247.0669415 -103.0625 243 C-99.82843265 236.78617242 -96.91874616 230.45791269 -94.0625 224.0625 C-90.89537355 216.99930529 -87.56150996 210.11700023 -83.82836914 203.33789062 C-81.12251604 198.37111346 -78.8647176 193.26801772 -76.65039062 188.06689453 C-73.97499204 181.82480569 -70.97116311 175.77110146 -67.89453125 169.71875 C-67.60573184 169.13918643 -67.31693243 168.55962286 -67.01938152 167.96249676 C-66 166 -66 166 -64.95081043 164.29344654 C-61.50476689 158.37592427 -61.51030309 153.15772805 -61.69213867 146.43432617 C-61.70589539 145.29990585 -61.7196521 144.16548553 -61.73382568 142.99668884 C-61.76457588 140.54343057 -61.80371586 138.09026603 -61.85036278 135.63725853 C-61.91876287 131.74781282 -61.95269567 127.85952397 -61.97566223 123.96955872 C-62.04161765 112.9138398 -62.12957046 101.85946014 -62.33911133 90.80541992 C-62.46710346 84.03295065 -62.51543375 77.26326812 -62.51958656 70.4896183 C-62.53507563 67.9166403 -62.57782826 65.34367069 -62.64888573 62.77162743 C-63.17485147 43.1863687 -63.17485147 43.1863687 -59.53375626 37.85181046 C-56.09207703 34.34635446 -52.20627709 31.94377775 -47.78617287 29.85010719 C-45.77672678 28.93226594 -45.77672678 28.93226594 -43.14274597 27.24845886 C-41 26 -41 26 -39 26 C-39 25.34 -39 24.68 -39 24 C-37.09043211 22.63869303 -35.18664064 21.40598504 -33.1875 20.1875 C-26.95680516 16.29424035 -20.86532211 12.22674441 -14.8125 8.0625 C-13.98709717 7.49490967 -13.16169434 6.92731934 -12.3112793 6.3425293 C-10.82775703 5.32177121 -9.34477092 4.30023302 -7.86254883 3.27758789 C-3.08427288 0 -3.08427288 0 0 0 Z M-21.91589355 41.94055176 C-25 44 -25 44 -28.1463623 45.26940918 C-31.8423516 46.95010776 -34.78484382 48.56322929 -37 52 C-38.9135391 58.80848564 -38.31896021 66.16152649 -38.08717346 73.1580658 C-37.96731378 76.82519147 -37.9231304 80.48647192 -37.89831543 84.15539551 C-37.8323704 91.93865302 -37.67299723 99.71848156 -37.5 107.5 C-37.29946175 116.52033001 -37.13757715 125.53784134 -37.07655334 134.56028748 C-37.03187662 138.16814752 -36.91524019 141.76907751 -36.79577637 145.37512207 C-36.5240113 160.79764334 -36.5240113 160.79764334 -39.17450523 164.75250626 C-41.55806118 167.04866468 -44.08599755 168.36998171 -47.09892273 169.68862915 C-51.74744995 171.78989793 -53.28277352 175.39939422 -55.3125 179.875 C-55.69599609 180.63296875 -56.07949219 181.3909375 -56.47460938 182.171875 C-57.40655795 184.07298244 -58.2154972 186.03345659 -59 188 C-58.67 188.66 -58.34 189.32 -58 190 C-57.030625 189.33355469 -56.06125 188.66710937 -55.0625 187.98046875 C-54.42280273 187.5407373 -53.78310547 187.10100586 -53.12402344 186.64794922 C-51.68955138 185.66162602 -50.25531229 184.67496393 -48.82128906 183.68798828 C-45.1517507 181.16308389 -41.47922572 178.64290788 -37.796875 176.13671875 C-37.11753906 175.67305908 -36.43820313 175.20939941 -35.73828125 174.73168945 C-34.47155172 173.86734564 -33.20346412 173.0049864 -31.93359375 172.14526367 C-30.71184418 171.31021616 -29.50925355 170.44646589 -28.32714844 169.55618286 C-26 168 -26 168 -23.01489258 166.71733093 C-19.09328604 164.6629289 -16.26836671 162.86737373 -14 159 C-11.84885915 150.77057681 -12.56430738 141.87863063 -12.78327274 133.45210528 C-12.85871028 130.05714696 -12.8653695 126.66203979 -12.87957764 123.26637268 C-12.91675617 116.84811127 -13.01505274 110.43232661 -13.13577151 104.01515204 C-13.2702851 96.70467212 -13.33597313 89.39406866 -13.39611673 82.08265769 C-13.52127462 67.0537292 -13.73209737 52.02711321 -14 37 C-16.67840484 37 -19.86409433 40.41115464 -21.91589355 41.94055176 Z M175.0625 114.4375 C169.39802046 118.86732651 169.39802046 118.86732651 166 120 C166 120.66 166 121.32 166 122 C165.33742188 122.22042969 164.67484375 122.44085938 163.9921875 122.66796875 C160.02566166 124.43374592 156.6669111 126.81992144 153.125 129.3125 C152.44308594 129.78623047 151.76117188 130.25996094 151.05859375 130.74804688 C149.03356106 132.15785535 147.01411565 133.57462931 145 135 C144.15028232 135.40016988 144.15028232 135.40016988 143.28339863 135.808424 C141.07510791 137.00404504 139.62596743 138.07285816 138 140 C136.95584608 144.12325209 137.11567553 148.17670975 137.20532227 152.40942383 C137.20430008 153.66836456 137.20327789 154.9273053 137.20222473 156.22439575 C137.20021909 159.66890784 137.2413217 163.11170792 137.29024243 166.55582261 C137.33405189 170.15786915 137.3381174 173.75995655 137.34642029 177.36222839 C137.36816284 184.18001349 137.42558525 190.9970113 137.49586672 197.81444997 C137.57415443 205.57730554 137.61260756 213.34019906 137.64773476 221.10335124 C137.72087021 237.06935652 137.84396517 253.03457667 138 269 C138.9827742 268.42457962 139.9655484 267.84915924 140.97810364 267.25630188 C143.6433311 265.71613693 146.32753456 264.39035019 149.13456726 263.13078308 C154.604556 260.40450578 159.81850271 257.48059899 161.87329483 251.42734146 C163.22120426 243.54547625 162.70033352 235.56616401 162.39453125 227.61328125 C162.35915232 225.02510204 162.33249093 222.43679035 162.31413269 219.84843445 C162.24333725 212.36108019 162.06371768 204.87952324 161.86611938 197.3946228 C161.60381824 187.2090676 161.42426397 177.02446188 161.32718468 166.835989 C161.27033633 163.042011 161.14350105 159.25473334 161.01167297 155.46272278 C160.63172458 137.81986934 160.63172458 137.81986934 164.39877319 133.75326538 C167.19747338 131.73549203 169.87326958 130.42002857 173 129 C175.18354927 126.53214861 176.59117957 123.96840024 178 121 C178.46277344 120.02675781 178.92554688 119.05351562 179.40234375 118.05078125 C180.63644585 115.38088169 181.83362356 112.70003737 183 110 C179.71344056 110 177.55842314 112.48171718 175.0625 114.4375 Z " fill="#0B0B0B" transform="translate(185,91)"/>
<path d="M0 0 C0 33.66 0 67.32 0 102 C-23.43 102 -46.86 102 -71 102 C-71.268125 93.13125 -71.53625 84.2625 -71.8125 75.125 C-71.93085205 72.34465332 -72.0492041 69.56430664 -72.17114258 66.69970703 C-72.63237164 48.08171157 -72.63237164 48.08171157 -68.2109375 43.12060547 C-65.11939163 40.44982758 -61.70686826 38.7064725 -58 37 C-56.44576532 35.97718031 -54.90156047 34.93868167 -53.375 33.875 C-50 32 -50 32 -47 32 C-47 47.18 -47 62.36 -47 78 C-39.41 78 -31.82 78 -24 78 C-24.07331543 76.11361816 -24.14663086 74.22723633 -24.22216797 72.28369141 C-24.44884782 66.01794112 -24.60917513 59.75316613 -24.72537041 53.48443031 C-24.79815171 49.68665258 -24.8966245 45.89334688 -25.05615234 42.09814453 C-26.14618836 15.48268742 -26.14618836 15.48268742 -21.03222656 9.87011719 C-17.64483235 7.10696162 -14.04546255 5.60038477 -10 4 C-8.94151855 3.27377441 -7.88303711 2.54754883 -6.79248047 1.79931641 C-4 0 -4 0 0 0 Z " fill="#0E0E0E" transform="translate(195,285)"/>
<path d="M0 0 C0.99 0.33 1.98 0.66 3 1 C3.25553016 9.98817186 3.45063883 18.97508369 3.56993389 27.9661026 C3.62720979 32.14179772 3.70479668 36.31499856 3.82983398 40.48925781 C3.94988292 44.52249877 4.0152269 48.55335132 4.04364967 52.58824158 C4.06388546 54.12269198 4.10340946 55.65701975 4.16303062 57.19044495 C4.610932 69.19412383 4.610932 69.19412383 0.5978241 73.69287109 C-2.18556571 75.7375909 -4.94208341 77.40394046 -8 79 C-9.14680544 79.75574521 -10.28603151 80.52341375 -11.41015625 81.3125 C-12.28542969 81.869375 -13.16070312 82.42625 -14.0625 83 C-14.96097656 83.5775 -15.85945313 84.155 -16.78515625 84.75 C-19 86 -19 86 -21 86 C-21.33 72.8 -21.66 59.6 -22 46 C-25.63 48.31 -29.26 50.62 -33 53 C-34.8665625 53.85722656 -36.733125 54.71445313 -38.65625 55.59765625 C-41.30768031 57.47470555 -42.73692293 58.83932739 -43.46630859 62.05731201 C-44.236428 69.47954581 -43.69875112 76.97366708 -43.36767578 84.40942383 C-42.72025104 101.16327558 -42.72025104 101.16327558 -46.1237793 106.0480957 C-48.67470664 108.10764347 -51.05070805 109.58724016 -54 111 C-55.27283511 111.7675234 -56.5439551 112.53790641 -57.8125 113.3125 C-58.864375 113.869375 -59.91625 114.42625 -61 115 C-61.928125 115.5775 -62.85625 116.155 -63.8125 116.75 C-66 118 -66 118 -68 118 C-68.39589169 108.95125825 -68.69688412 99.90553981 -68.88080692 90.84999466 C-68.96914435 86.64344492 -69.08861359 82.44286009 -69.2824707 78.23974609 C-70.50118357 51.12224442 -70.50118357 51.12224442 -66.3772583 44.32553101 C-62.5497516 40.30018159 -58.2014067 37.91848872 -53.08102417 35.87895203 C-49.99093089 34.5738044 -47.47765281 32.75678349 -44.75 30.8125 C-43.7909375 30.17957031 -42.831875 29.54664062 -41.84375 28.89453125 C-38.95118294 26.96747765 -36.09913146 24.99064317 -33.25 23 C-25.6027915 17.67409836 -17.82630499 12.54288126 -10.04980469 7.40820312 C-9.03950195 6.73853516 -8.02919922 6.06886719 -6.98828125 5.37890625 C-6.07602783 4.7763501 -5.16377441 4.17379395 -4.22387695 3.55297852 C-1.93317063 2.04976811 -1.93317063 2.04976811 0 0 Z " fill="#070707" transform="translate(367,79)"/>
<path d="M0 0 C0 3 0 3 -1 6 C-1.08942448 7.57350692 -1.12197321 9.15056328 -1.12025452 10.72660828 C-1.12162918 11.69835999 -1.12300385 12.67011169 -1.12442017 13.67131042 C-1.12082489 14.73585953 -1.11722961 15.80040863 -1.11352539 16.8972168 C-1.11367142 18.01931549 -1.11381744 19.14141418 -1.1139679 20.29751587 C-1.11326998 24.01476968 -1.10548317 27.73197367 -1.09765625 31.44921875 C-1.09579164 34.0232592 -1.09436794 36.59730001 -1.09336853 39.17134094 C-1.08993757 45.25925528 -1.08205218 51.34714899 -1.07201904 57.43505555 C-1.06084421 64.36606694 -1.055344 71.29707917 -1.05032361 78.22809732 C-1.03986921 92.48540785 -1.0222783 106.74270329 -1 121 C-2.98 121.495 -2.98 121.495 -5 122 C-5 122.66 -5 123.32 -5 124 C-6.485 124.99 -6.485 124.99 -8 126 C-8.99 125.67 -9.98 125.34 -11 125 C-9.86230164 124.40724274 -8.72460327 123.81448547 -7.5524292 123.20376587 C-5.16136735 121.4761756 -4.1532274 120.54473744 -3.34690094 117.67817307 C-3.11772937 114.6800024 -3.10351961 111.74635825 -3.16113281 108.73974609 C-3.15517593 107.60266708 -3.14921906 106.46558807 -3.14308167 105.29405212 C-3.13097193 101.53644163 -3.1674735 97.78087195 -3.203125 94.0234375 C-3.20135807 91.414597 -3.19608201 88.80575671 -3.18743896 86.19692993 C-3.17168191 80.03098301 -3.18887853 73.86563836 -3.2201097 67.69976676 C-3.27871316 55.99826282 -3.28050534 44.2968451 -3.26424408 32.59523392 C-3.2656123 28.7466635 -3.28800173 24.89862248 -3.31280518 21.05014038 C-3.31624785 18.70058269 -3.31910776 16.35102405 -3.32128906 14.00146484 C-3.33372147 12.92606949 -3.34615387 11.85067413 -3.35896301 10.74269104 C-3.35654099 9.76133682 -3.35411896 8.7799826 -3.35162354 7.76889038 C-3.35834768 6.48858224 -3.35834768 6.48858224 -3.36520767 5.18240929 C-2.92309131 2.54040879 -2.04482796 1.6628757 0 0 Z " fill="#565656" transform="translate(349,225)"/>
<path d="M0 0 C2 2 2 2 2.24050903 4.7081604 C2.23606781 5.85843719 2.23162659 7.00871399 2.22705078 8.19384766 C2.22689972 9.49504547 2.22674866 10.79624329 2.22659302 12.13687134 C2.21637893 13.56260327 2.20594692 14.98833365 2.1953125 16.4140625 C2.19158295 17.86851813 2.1887357 19.32297627 2.18673706 20.7774353 C2.179096 24.60798056 2.15944357 28.43837446 2.1373291 32.26885986 C2.11688078 36.17661491 2.10773752 40.08439439 2.09765625 43.9921875 C2.07619802 51.66152738 2.04205651 59.33074249 2 67 C2.763125 66.649375 3.52625 66.29875 4.3125 65.9375 C7 65 7 65 10 66 C6.40538913 69.1837982 4.92129494 70.01574101 0 71 C0 47.57 0 24.14 0 0 Z " fill="#585858" transform="translate(299,126)"/>
<path d="M0 0 C0.99 0.33 1.98 0.66 3 1 C3 13.54 3 26.08 3 39 C3.99 39 4.98 39 6 39 C6 38.34 6 37.68 6 37 C6.66 36.34 7.32 35.68 8 35 C8.99 35 9.98 35 11 35 C11.66 33.68 12.32 32.36 13 31 C14.65 31 16.3 31 18 31 C15.06072511 34.14822808 12.0143222 36.45457845 8.375 38.75 C7.41335938 39.36359375 6.45171875 39.9771875 5.4609375 40.609375 C3 42 3 42 1 42 C0.505 21.21 0.505 21.21 0 0 Z " fill="#515151" transform="translate(345,123)"/>
<path d="M0 0 C0.33 0 0.66 0 1 0 C1.13901995 9.05762812 1.24562968 18.1148891 1.31087303 27.17335129 C1.34218701 31.37962269 1.38465883 35.58516429 1.45263672 39.79101562 C1.51783028 43.85000017 1.55370555 47.90828287 1.56926346 51.96775055 C1.58035014 53.51640119 1.60200094 55.06501338 1.63438034 56.61336517 C1.67795012 58.78312644 1.68393485 60.94998886 1.68115234 63.12011719 C1.69447601 64.35477722 1.70779968 65.58943726 1.7215271 66.86151123 C1 70 1 70 -2.04257202 72.42999268 C-3.01852325 72.94809509 -3.99447449 73.46619751 -5 74 C-4.67 72.35 -4.34 70.7 -4 69 C-2.02 68.505 -2.02 68.505 0 68 C0 45.56 0 23.12 0 0 Z " fill="#676767" transform="translate(369,80)"/>
<path d="M0 0 C0.66 0.33 1.32 0.66 2 1 C1.67 10.24 1.34 19.48 1 29 C0.01 29 -0.98 29 -2 29 C-3.5703125 27.35546875 -3.5703125 27.35546875 -5.125 25.1875 C-5.64320313 24.47980469 -6.16140625 23.77210938 -6.6953125 23.04296875 C-8 21 -8 21 -9 18 C-8.01 18 -7.02 18 -6 18 C-5.73445313 18.56589844 -5.46890625 19.13179688 -5.1953125 19.71484375 C-4.84210938 20.44832031 -4.48890625 21.18179687 -4.125 21.9375 C-3.77695312 22.66839844 -3.42890625 23.39929688 -3.0703125 24.15234375 C-2.1315023 26.16332459 -2.1315023 26.16332459 0 27 C0 18.09 0 9.18 0 0 Z " fill="#A4A4A4" transform="translate(288,254)"/>
<path d="M0 0 C4 2 4 2 5 4 C4.01 4 3.02 4 2 4 C2.01160156 5.26457031 2.02320313 6.52914062 2.03515625 7.83203125 C2.04453566 9.49218602 2.0536357 11.15234239 2.0625 12.8125 C2.07087891 13.64587891 2.07925781 14.47925781 2.08789062 15.33789062 C2.09111328 16.14033203 2.09433594 16.94277344 2.09765625 17.76953125 C2.10289307 18.50792236 2.10812988 19.24631348 2.11352539 20.00708008 C2 22 2 22 1 25 C0.34 24.67 -0.32 24.34 -1 24 C-0.67 16.08 -0.34 8.16 0 0 Z " fill="#616161" transform="translate(205,203)"/>
<path d="M0 0 C0.33 0 0.66 0 1 0 C1 11.22 1 22.44 1 34 C-0.98 34.495 -0.98 34.495 -3 35 C-3 35.66 -3 36.32 -3 37 C-3.99 37.66 -4.98 38.32 -6 39 C-6.99 38.67 -7.98 38.34 -9 38 C-7.87926138 37.16094435 -6.75325453 36.32892169 -5.625 35.5 C-4.99851562 35.0359375 -4.37203125 34.571875 -3.7265625 34.09375 C-2 33 -2 33 0 33 C0 22.11 0 11.22 0 0 Z " fill="#272727" transform="translate(347,312)"/>
<path d="M0 0 C1.875 0.1875 1.875 0.1875 4 1 C4.72904086 2.64034193 5.38655243 4.31301918 6 6 C7.0209375 7.2065625 7.0209375 7.2065625 8.0625 8.4375 C10.27027872 11.35746541 10.66499056 13.39864852 11 17 C8.05849939 14.33687484 6.0071969 11.22754654 3.8125 7.9375 C3.09707031 6.87402344 2.38164062 5.81054688 1.64453125 4.71484375 C0 2 0 2 0 0 Z " fill="#595959" transform="translate(286,361)"/>
<path d="M0 0 C0.33 0 0.66 0 1 0 C1.12375 0.94875 1.2475 1.8975 1.375 2.875 C1.71687177 6.08667191 1.71687177 6.08667191 4 8 C-1.75 12 -1.75 12 -4 12 C-3.45660208 7.43545749 -2.20536179 4.0271824 0 0 Z " fill="#484848" transform="translate(82,334)"/>
<path d="M0 0 C0.66 0.33 1.32 0.66 2 1 C-3.28 4.63 -8.56 8.26 -14 12 C-14.33 11.01 -14.66 10.02 -15 9 C-13.87926138 8.16094435 -12.75325453 7.32892169 -11.625 6.5 C-10.99851563 6.0359375 -10.37203125 5.571875 -9.7265625 5.09375 C-8 4 -8 4 -6 4 C-5.67 3.34 -5.34 2.68 -5 2 C-4.34 2.33 -3.68 2.66 -3 3 C-3 2.34 -3 1.68 -3 1 C-2.01 0.67 -1.02 0.34 0 0 Z " fill="#505050" transform="translate(203,259)"/>
<path d="M0 0 C0.33 0 0.66 0 1 0 C1 7.26 1 14.52 1 22 C-1.31 23.32 -3.62 24.64 -6 26 C-5.75 24.1875 -5.75 24.1875 -5 22 C-4.01 21.48953125 -4.01 21.48953125 -3 20.96875 C0.29306969 17.72713452 -0.32141058 13.74969407 -0.25 9.3125 C-0.22035156 8.41982422 -0.19070312 7.52714844 -0.16015625 6.60742188 C-0.08948573 4.40485723 -0.03678061 2.20334869 0 0 Z " fill="#2F2F30" transform="translate(146,233)"/>
<path d="M0 0 C1.65 0 3.3 0 5 0 C1.28249221 4.20240011 -3.31660979 6.99782679 -8 10 C-8.66 9.34 -9.32 8.68 -10 8 C-9.01 8 -8.02 8 -7 8 C-7 7.34 -7 6.68 -7 6 C-6.34 5.34 -5.68 4.68 -5 4 C-4.01 4 -3.02 4 -2 4 C-1.34 2.68 -0.68 1.36 0 0 Z " fill="#424342" transform="translate(358,154)"/>
<path d="M0 0 C1.32 0.33 2.64 0.66 4 1 C0.53005564 4.9036874 -3.55224006 7.36588975 -8 10 C-7.61631426 7.46551249 -7.31730181 6.2822997 -5.37109375 4.55078125 C-4.73300781 4.14214844 -4.09492188 3.73351562 -3.4375 3.3125 C-2.27956918 2.55996146 -1.13009755 1.79372387 0 1 C0 0.67 0 0.34 0 0 Z " fill="#474747" transform="translate(262,220)"/>
<path d="M0 0 C0.66 0.33 1.32 0.66 2 1 C0.90081184 1.98475214 -0.2045602 2.96260473 -1.3125 3.9375 C-1.92738281 4.48277344 -2.54226563 5.02804688 -3.17578125 5.58984375 C-5 7 -5 7 -8 8 C-9.66710346 9.49985609 -9.66710346 9.49985609 -11 11 C-11.66 10.34 -12.32 9.68 -13 9 C-8.71 6.03 -4.42 3.06 0 0 Z M-13 11 C-12.67 11.66 -12.34 12.32 -12 13 C-12.66 12.67 -13.32 12.34 -14 12 C-13.67 11.67 -13.34 11.34 -13 11 Z " fill="#4A4A4A" transform="translate(322,110)"/>
<path d="M0 0 C-0.25561323 2.3431213 -0.59270772 4.67843403 -1 7 C-1.99 7.495 -1.99 7.495 -3 8 C-3 6.68 -3 5.36 -3 4 C-3.66 4 -4.32 4 -5 4 C-5.33 4.99 -5.66 5.98 -6 7 C-6.99 6.34 -7.98 5.68 -9 5 C-7.87926138 4.16094435 -6.75325453 3.32892169 -5.625 2.5 C-4.99851562 2.0359375 -4.37203125 1.571875 -3.7265625 1.09375 C-2 0 -2 0 0 0 Z " fill="#4E4E4E" transform="translate(416,135)"/>
<path d="M0 0 C0.33 0.66 0.66 1.32 1 2 C-0.57017193 3.36940568 -2.15665391 4.72012895 -3.75 6.0625 C-4.63171875 6.81660156 -5.5134375 7.57070313 -6.421875 8.34765625 C-7.27265625 8.89292969 -8.1234375 9.43820312 -9 10 C-10.32 9.67 -11.64 9.34 -13 9 C-8.71 6.03 -4.42 3.06 0 0 Z " fill="#515151" transform="translate(143,269)"/>
<path d="M0 0 C0.99 0 1.98 0 3 0 C3 0.66 3 1.32 3 2 C3.66 2 4.32 2 5 2 C5.28875 2.61875 5.5775 3.2375 5.875 3.875 C6.93720042 6.13325765 6.93720042 6.13325765 9 8 C8.01 8.66 7.02 9.32 6 10 C4.99421411 8.71283353 3.99553202 7.42011342 3 6.125 C2.443125 5.40570313 1.88625 4.68640625 1.3125 3.9453125 C0 2 0 2 0 0 Z " fill="#424242" transform="translate(266,253)"/>
<path d="M0 0 C4.42857143 5.14285714 4.42857143 5.14285714 5 9 C4.01 9.495 4.01 9.495 3 10 C2.16094435 8.87926138 1.32892169 7.75325453 0.5 6.625 C0.0359375 5.99851562 -0.428125 5.37203125 -0.90625 4.7265625 C-2 3 -2 3 -2 1 C-1.34 0.67 -0.68 0.34 0 0 Z " fill="#444444" transform="translate(239,288)"/>
<path d="M0 0 C1.65 0 3.3 0 5 0 C3.33784732 1.33895632 1.67036393 2.67130142 0 4 C-1.0828125 4.86625 -1.0828125 4.86625 -2.1875 5.75 C-4 7 -4 7 -6 7 C-6 6.01 -6 5.02 -6 4 C-4.68 4 -3.36 4 -2 4 C-1.34 2.68 -0.68 1.36 0 0 Z " fill="#424242" transform="translate(135,304)"/>
<path d="M0 0 C0.99 0.66 1.98 1.32 3 2 C1.87926138 2.83905565 0.75325453 3.67107831 -0.375 4.5 C-1.00148438 4.9640625 -1.62796875 5.428125 -2.2734375 5.90625 C-4 7 -4 7 -6 7 C-5.8125 4.625 -5.8125 4.625 -5 2 C-2.625 0.5625 -2.625 0.5625 0 0 Z " fill="#383838" transform="translate(99,329)"/>
<path d="M0 0 C0.99 0 1.98 0 3 0 C3.26554687 0.56589844 3.53109375 1.13179688 3.8046875 1.71484375 C4.15789062 2.44832031 4.51109375 3.18179687 4.875 3.9375 C5.22304688 4.66839844 5.57109375 5.39929688 5.9296875 6.15234375 C6.8684977 8.16332459 6.8684977 8.16332459 9 9 C8.67 9.99 8.34 10.98 8 12 C1.48063781 4.88610478 1.48063781 4.88610478 0 0 Z " fill="#6B6B6B" transform="translate(279,272)"/>
<path d="M0 0 C0.99 0.66 1.98 1.32 3 2 C1.90554162 2.86657116 0.79902219 3.71792724 -0.3125 4.5625 C-0.92738281 5.03816406 -1.54226563 5.51382813 -2.17578125 6.00390625 C-2.77777344 6.33261719 -3.37976563 6.66132813 -4 7 C-4.99 6.67 -5.98 6.34 -7 6 C-4.88929795 2.83394693 -3.26460973 1.80412643 0 0 Z " fill="#3A3A3A" transform="translate(337,218)"/>
<path d="M0 0 C1.32 0.33 2.64 0.66 4 1 C4 1.66 4 2.32 4 3 C4.99 3.33 5.98 3.66 7 4 C6.34 5.32 5.68 6.64 5 8 C0 2.25 0 2.25 0 0 Z " fill="#4F4F4F" transform="translate(251,310)"/>
<path d="M0 0 C0 3 0 3 -2 5.1875 C-2.66 5.785625 -3.32 6.38375 -4 7 C-5.32 6.34 -6.64 5.68 -8 5 C-4.04 2.525 -4.04 2.525 0 0 Z " fill="#565656" transform="translate(300,214)"/>
<path d="M0 0 C1.32 0.66 2.64 1.32 4 2 C3.67 3.32 3.34 4.64 3 6 C3.99 6.33 4.98 6.66 6 7 C5.34 7.66 4.68 8.32 4 9 C4 8.34 4 7.68 4 7 C3.34 7 2.68 7 2 7 C1.01 5.02 0.02 3.04 -1 1 C-0.67 0.67 -0.34 0.34 0 0 Z " fill="#3C3C3C" transform="translate(299,379)"/>
<path d="M0 0 C2.52588702 2.36292656 3.88820837 3.66462511 5 7 C4.01 7.33 3.02 7.66 2 8 C0.4375 5.6875 0.4375 5.6875 -1 3 C-0.67 2.01 -0.34 1.02 0 0 Z " fill="#393939" transform="translate(249,187)"/>
<path d="M0 0 C0.33 0.66 0.66 1.32 1 2 C0.67 2.66 0.34 3.32 0 4 C-0.99 4.33 -1.98 4.66 -3 5 C-3 5.99 -3 6.98 -3 8 C-4.65 7.67 -6.3 7.34 -8 7 C-5.4837822 4.39391727 -2.94865641 2.10618315 0 0 Z " fill="#3E3E3E" transform="translate(385,155)"/>
<path d="M0 0 C0.99 0.66 1.98 1.32 3 2 C2.34 2 1.68 2 1 2 C1 2.66 1 3.32 1 4 C-0.98 4.99 -2.96 5.98 -5 7 C-5.33 6.01 -5.66 5.02 -6 4 C-4.02 3.34 -2.04 2.68 0 2 C0 1.34 0 0.68 0 0 Z " fill="#313131" transform="translate(344,121)"/>
<path d="M0 0 C0.66 0.33 1.32 0.66 2 1 C1.01 2.485 1.01 2.485 0 4 C-0.66 4 -1.32 4 -2 4 C-2 4.66 -2 5.32 -2 6 C-3.98 6.33 -5.96 6.66 -8 7 C-5.42215154 4.35247996 -3.08351902 2.05567935 0 0 Z " fill="#4E4E4E" transform="translate(177,94)"/>
<path d="M0 0 C2.475 0.99 2.475 0.99 5 2 C5 3.98 5 5.96 5 8 C2.20127563 5.47211993 0.54226981 3.79588866 0 0 Z " fill="#575757" transform="translate(280,352)"/>
<path d="M0 0 C0.66 0.33 1.32 0.66 2 1 C2 2.65 2 4.3 2 6 C0.35 6.66 -1.3 7.32 -3 8 C-2.690625 7.236875 -2.38125 6.47375 -2.0625 5.6875 C-1.32106407 3.81210323 -0.63771783 1.91315348 0 0 Z " fill="#474747" transform="translate(117,261)"/>
<path d="M0 0 C0.66 0.33 1.32 0.66 2 1 C0.875 3.5 0.875 3.5 -1 6 C-4.1875 6.3125 -4.1875 6.3125 -7 6 C-4.74259377 3.66475218 -2.7194239 1.81294927 0 0 Z " fill="#464646" transform="translate(352,178)"/>
<path d="M0 0 C0.33 0.99 0.66 1.98 1 3 C0.01 3.33 -0.98 3.66 -2 4 C-2.33 4.66 -2.66 5.32 -3 6 C-4.32 5.67 -5.64 5.34 -7 5 C-4.69 3.35 -2.38 1.7 0 0 Z " fill="#5E5E5E" transform="translate(169,251)"/>
<path d="M0 0 C0.99 0.33 1.98 0.66 3 1 C3 1.66 3 2.32 3 3 C4.32 3.66 5.64 4.32 7 5 C6.01 5.99 5.02 6.98 4 8 C0 2.25 0 2.25 0 0 Z " fill="#4F4F4F" transform="translate(228,197)"/>
<path d="M0 0 C0.66 0.33 1.32 0.66 2 1 C0.875 2.9375 0.875 2.9375 -1 5 C-4.1875 5.75 -4.1875 5.75 -7 6 C-4.83312509 3.72478134 -2.54379491 1.84205838 0 0 Z " fill="#595959" transform="translate(369,166)"/>
<path d="M0 0 C0.99 0 1.98 0 3 0 C2.75 1.875 2.75 1.875 2 4 C-0.0625 5.25 -0.0625 5.25 -2 6 C-1.125 1.125 -1.125 1.125 0 0 Z " fill="#3B3B3B" transform="translate(366,148)"/>
<path d="M0 0 C0.66 0.33 1.32 0.66 2 1 C0.515 3.475 0.515 3.475 -1 6 C-2.65 5.67 -4.3 5.34 -6 5 C-5.195625 4.360625 -4.39125 3.72125 -3.5625 3.0625 C-1.7249496 1.59396498 -1.7249496 1.59396498 0 0 Z " fill="#3C3C3C" transform="translate(191,285)"/>
<path d="M0 0 C1.1446875 0.3403125 1.1446875 0.3403125 2.3125 0.6875 C-0.54056797 3.01222205 -3.22824837 4.4383258 -6.6875 5.6875 C-5.36299661 1.71398982 -4.47633997 -0.52050465 0 0 Z " fill="#515151" transform="translate(366.6875,199.3125)"/>
<path d="M0 0 C0 3.69418201 -1.28179295 5.77836178 -3 9 C-3.5534764 6.92446352 -4 5.15634036 -4 3 C-3.34 3 -2.68 3 -2 3 C-2 2.34 -2 1.68 -2 1 C-1.34 0.67 -0.68 0.34 0 0 Z " fill="#686868" transform="translate(405,159)"/>
<path d="M0 0 C0.66 0.33 1.32 0.66 2 1 C0.35 2.98 -1.3 4.96 -3 7 C-4.32 6.34 -5.64 5.68 -7 5 C-4.69 3.35 -2.38 1.7 0 0 Z " fill="#3F3F3F" transform="translate(338,99)"/>
<path d="M0 0 C0.66 0.33 1.32 0.66 2 1 C0.02 3.31 -1.96 5.62 -4 8 C-4.33 7.34 -4.66 6.68 -5 6 C-5.66 5.67 -6.32 5.34 -7 5 C-4.69 3.35 -2.38 1.7 0 0 Z " fill="#5A5A5A" transform="translate(367,79)"/>
<path d="M0 0 C1.65 0 3.3 0 5 0 C5 0.66 5 1.32 5 2 C3.02 2.99 1.04 3.98 -1 5 C-0.67 3.35 -0.34 1.7 0 0 Z " fill="#515151" transform="translate(355,363)"/>
<path d="M0 0 C1.32 0.33 2.64 0.66 4 1 C4.33 2.65 4.66 4.3 5 6 C3.0625 5.25 3.0625 5.25 1 4 C0.25 1.875 0.25 1.875 0 0 Z " fill="#474747" transform="translate(286,361)"/>
<path d="M0 0 C0 0.99 0 1.98 0 3 C-2.97411124 4.23921302 -5.85262818 5.30058404 -9 6 C-3.2 0 -3.2 0 0 0 Z " fill="#606060" transform="translate(310,208)"/>
<path d="M0 0 C-2.3125 2.0625 -2.3125 2.0625 -5 4 C-5.99 3.67 -6.98 3.34 -8 3 C-8 2.34 -8 1.68 -8 1 C-3.375 -1.125 -3.375 -1.125 0 0 Z " fill="#3C3C3C" transform="translate(309,192)"/>
</svg>
