<?xml version="1.0" encoding="UTF-8"?>
<svg version="1.1" xmlns="http://www.w3.org/2000/svg" width="768" height="768">
<path d="M0 0 C253.44 0 506.88 0 768 0 C768 253.44 768 506.88 768 768 C514.56 768 261.12 768 0 768 C0 514.56 0 261.12 0 0 Z " fill="#0C0D0B" transform="translate(0,0)"/>
<path d="M0 0 C1.64135742 2.12939453 1.64135742 2.12939453 3.60546875 5.1328125 C3.96147156 5.67245132 4.31747437 6.21209015 4.68426514 6.76808167 C5.45461856 7.937354 6.22183707 9.1086963 6.98629761 10.28182983 C8.60315064 12.76278999 10.23485659 15.23383842 11.86598206 17.70542908 C12.69863624 18.96735177 13.53052882 20.2297773 14.36167908 21.49269104 C18.162349 27.26400259 22.03538856 32.98429654 25.9375 38.6875 C26.55681396 39.59371094 27.17612793 40.49992187 27.81420898 41.43359375 C31.70032473 47.11414231 35.60185244 52.7840302 39.50854492 58.45043945 C42.57599617 62.90775068 45.61973342 67.38094836 48.65625 71.859375 C49.07283875 72.47376434 49.48942749 73.08815369 49.91864014 73.72116089 C52.00994599 76.80618972 54.09996849 79.8920804 56.18847656 82.97900391 C60.21521524 88.92644573 64.2728777 94.8491309 68.40429688 100.72460938 C70.92378382 104.31726824 73.40019461 107.93897948 75.875 111.5625 C76.420354 112.35986572 76.96570801 113.15723145 77.52758789 113.97875977 C80.73709796 118.67502488 83.93659509 123.37796478 87.12890625 128.0859375 C87.8362793 129.12854736 88.54365234 130.17115723 89.27246094 131.24536133 C90.71307758 133.36940989 92.15253558 135.49424476 93.59082031 137.61987305 C97.08203981 142.76580993 100.60717676 147.87958763 104.23046875 152.93359375 C104.88797119 153.85406494 105.54547363 154.77453613 106.22290039 155.72290039 C107.46435495 157.45386187 108.71448419 159.178644 109.97436523 160.89624023 C110.52165283 161.66009033 111.06894043 162.42394043 111.6328125 163.2109375 C112.11637207 163.87399902 112.59993164 164.53706055 113.09814453 165.22021484 C113.39575684 165.80754395 113.69336914 166.39487305 114 167 C112.74754635 170.75736095 111.40264319 171.37584903 108.16015625 173.57421875 C107.17982422 174.24130859 106.19949219 174.90839844 105.18945312 175.59570312 C104.15755859 176.28599609 103.12566406 176.97628906 102.0625 177.6875 C101.03447266 178.38939453 100.00644531 179.09128906 98.94726562 179.81445312 C91.2722531 185 91.2722531 185 89 185 C87.51171875 183.04296875 87.51171875 183.04296875 85.6875 180.1875 C84.9759375 179.09308594 84.264375 177.99867188 83.53125 176.87109375 C83.13164062 176.2560498 82.73203125 175.64100586 82.3203125 175.00732422 C79.82868656 171.21920505 77.25342496 167.48800484 74.6875 163.75 C74.12619385 162.93080078 73.5648877 162.11160156 72.98657227 161.26757812 C69.97309101 156.87080995 66.95411761 152.47783782 63.93212891 148.08691406 C52.55063564 131.54824809 41.25894187 114.95399337 30.14453125 98.234375 C24.77083985 90.15104656 19.38421505 82.07632257 14 74 C14 112.94 14 151.88 14 192 C18.62 188.7 23.24 185.4 28 182 C28.66 182 29.32 182 30 182 C30 171.77 30 161.54 30 151 C33.33040144 154.33040144 35.79506126 157.47735199 38.3125 161.375 C39.20975575 162.741662 40.10826849 164.10749931 41.0078125 165.47265625 C41.4915332 166.20758301 41.97525391 166.94250977 42.47363281 167.69970703 C45.1710869 171.76487216 47.93220187 175.78641839 50.6875 179.8125 C57.73532657 190.12621369 64.73767676 200.47026365 71.7333374 210.81939697 C78.58140148 220.95005069 85.44093645 231.07277324 92.3125 241.1875 C97.4130488 248.69545503 102.49724932 256.21299758 107.51245117 263.77832031 C111.19933082 269.32818718 114.97820151 274.8140934 118.75219727 280.30493164 C124.00697475 287.96977775 129.15101046 295.70724501 134.26806641 303.46459961 C138.01885039 309.12533617 141.88572316 314.66695704 145.93432617 320.11914062 C148.723596 324.00915174 151.34483304 328.01724956 154 332 C154.33 290.75 154.66 249.5 155 207 C140.36912071 214.6583289 140.36912071 214.6583289 138.20532227 221.71533203 C138.11101829 224.09162509 138.11101829 224.09162509 138.31640625 226.5078125 C138.31543442 227.35930878 138.31446259 228.21080505 138.3134613 229.08810425 C138.32632194 231.77352219 138.4423036 234.44246787 138.5625 237.125 C138.58956434 238.95824465 138.6098064 240.79160339 138.62304688 242.625 C138.6700062 247.08853136 138.80938293 251.54038797 139 256 C136.42506828 253.52213161 134.21931036 251.0830588 132.22265625 248.12109375 C131.71557129 247.37400146 131.20848633 246.62690918 130.68603516 245.85717773 C129.88238525 244.65943726 129.88238525 244.65943726 129.0625 243.4375 C127.90505076 241.72909699 126.74749556 240.02076576 125.58984375 238.3125 C124.99800293 237.4359375 124.40616211 236.559375 123.79638672 235.65625 C120.92184406 231.40577104 118.02321519 227.17185586 115.125 222.9375 C114.58343262 222.14408203 114.04186523 221.35066406 113.48388672 220.53320312 C110.07670815 215.54708815 106.6217859 210.60241205 103.07421875 205.71484375 C102 204 102 204 102 202 C104.0625 200.44140625 104.0625 200.44140625 107 198.5625 C108.12190149 197.83457674 109.24295451 197.1053446 110.36328125 196.375 C110.96092285 195.98699219 111.55856445 195.59898437 112.17431641 195.19921875 C115.21292687 193.2032767 118.19820714 191.1312682 121.1875 189.0625 C127.16471439 184.93630824 133.16656673 180.84769962 139.1784668 176.7722168 C148.13772213 170.69758799 157.0657415 164.59063465 165.88818359 158.31884766 C173.43086265 152.96426143 181.07874083 147.76511772 188.72167969 142.55517578 C192.21594243 140.17000072 195.70222174 137.77327703 199.1875 135.375 C199.84105469 134.92527832 200.49460937 134.47555664 201.16796875 134.01220703 C202.47169098 133.11508803 203.77540203 132.21795277 205.07910156 131.32080078 C206.96575832 130.02354442 208.85374916 128.72825495 210.7421875 127.43359375 C219.68941814 121.29670381 228.60067292 115.10919637 237.50341797 108.90795898 C243.05205176 105.04482934 248.61012169 101.19649716 254.1875 97.375 C260.93888148 92.74871487 267.6406051 88.05338806 274.33935547 83.35131836 C281.07286958 78.63215321 287.84738809 73.97528986 294.64575195 69.35009766 C295.37753662 68.85171387 296.10932129 68.35333008 296.86328125 67.83984375 C297.90669678 67.12997314 297.90669678 67.12997314 298.97119141 66.40576172 C300.97996715 65.01388076 302.94874114 63.57598633 304.91796875 62.12890625 C308 60 308 60 310 60 C308.5990025 63.6121709 307.03590733 67.09924919 305.34765625 70.5859375 C304.82461914 71.66875 304.30158203 72.7515625 303.76269531 73.8671875 C303.20163086 75.02476562 302.64056641 76.18234375 302.0625 77.375 C300.87039523 79.84080851 299.67940288 82.30715397 298.48828125 84.7734375 C298.18928925 85.39208679 297.89029724 86.01073608 297.58224487 86.64813232 C294.95317094 92.09006988 292.34992877 97.54410023 289.75 103 C284.68200992 113.62235521 279.53552211 124.20616675 274.38613892 134.78921509 C269.46475697 144.90440221 264.56418973 155.02850394 259.75 165.1953125 C259.36714844 166.00097656 258.98429687 166.80664062 258.58984375 167.63671875 C258.22371349 168.42181478 257.85758324 169.2069108 257.48035812 170.01579762 C256.40033218 172.1929843 255.23279401 174.32738459 254.01662064 176.43155193 C248.2813366 186.53606167 246.94653508 194.36704467 247.44433594 205.8449707 C247.48269504 207.46171305 247.51696857 209.07855657 247.54753113 210.69546509 C247.61870754 214.14413466 247.71305448 217.59107122 247.82479095 221.03866005 C247.99669678 226.5096549 248.08282218 231.98003898 248.15264893 237.45317078 C248.36049664 253.00377852 248.62118337 268.55059505 249.10009766 284.09545898 C249.36475074 292.70857318 249.5270789 301.31744235 249.57814813 309.93454045 C249.60945623 314.48008693 249.69121359 319.01136315 249.90111542 323.55245399 C251.16582404 351.77373459 251.16582404 351.77373459 244.28248596 359.34188461 C237.90705399 365.37464357 230.22362464 369.43731524 222.39537811 373.25874901 C217.58716 375.72454642 213.32427535 378.78070555 209 382 C207.10558305 383.31454354 205.20992743 384.62730558 203.3125 385.9375 C198.92966277 388.9644955 194.55839421 392.00708139 190.1953125 395.0625 C189.16623779 395.78187744 188.13716309 396.50125488 187.0769043 397.24243164 C185.00656649 398.69000978 182.93768368 400.13967141 180.87036133 401.59155273 C179.91154053 402.26130127 178.95271973 402.9310498 177.96484375 403.62109375 C177.1049585 404.2236499 176.24507324 404.82620605 175.35913086 405.44702148 C173.28678805 406.81121196 171.2449511 407.95196691 169 409 C168.58314941 408.33645508 168.16629883 407.67291016 167.73681641 406.98925781 C163.41485652 400.14845252 158.94489578 393.42709502 154.375 386.75 C152.86949915 384.54316747 151.36430506 382.33612784 149.859375 380.12890625 C149.46775177 379.55489578 149.07612854 378.98088531 148.67263794 378.38948059 C144.41815174 372.15192555 140.18456769 365.90025442 135.95202637 359.64779663 C133.72893182 356.36381912 131.50507521 353.08035775 129.28125 349.796875 C128.84125671 349.14720261 128.40126343 348.49753021 127.94793701 347.82817078 C123.34312737 341.02935649 118.73508451 334.23273847 114.125 327.4375 C113.73140289 326.85725067 113.33780579 326.27700134 112.93228149 325.6791687 C108.35226436 318.92782292 103.76166424 312.18386706 99.1574707 305.44897461 C93.35695381 296.96350229 87.62032748 288.43977931 81.9375 279.875 C76.36709691 271.48193536 70.6784188 263.18596429 64.87353516 254.95361328 C61.04256313 249.51400761 57.30557273 244.02276717 53.63769531 238.47216797 C48.85793889 231.24681593 43.9256777 224.12631318 39 217 C35.57933144 218.26520954 32.70174585 219.71665607 29.70703125 221.79296875 C28.91723877 222.33711426 28.12744629 222.88125977 27.3137207 223.44189453 C26.48831787 224.01794434 25.66291504 224.59399414 24.8125 225.1875 C23.9568042 225.77901855 23.1011084 226.37053711 22.21948242 226.97998047 C19.80924837 228.64802129 17.40354838 230.32234469 15 232 C14.0409375 232.66902344 13.081875 233.33804688 12.09375 234.02734375 C10.57702207 235.08957273 9.06138944 236.15336743 7.546875 237.21875 C-0.11049055 242.57420811 -7.83120088 247.84025166 -15.55078125 253.10546875 C-27.93446546 261.55465886 -40.22409088 270.13272084 -52.49121094 278.75 C-58.01033731 282.62127597 -63.55606135 286.45079615 -69.125 290.25 C-70.78655229 291.38527916 -72.44800906 292.52069815 -74.109375 293.65625 C-74.92986328 294.21699219 -75.75035156 294.77773438 -76.59570312 295.35546875 C-91.00582456 305.21194498 -105.35454191 315.15677352 -119.6875 325.125 C-121.13104858 326.12889771 -121.13104858 326.12889771 -122.60375977 327.15307617 C-128.74334066 331.42470736 -134.8751183 335.70731931 -141 340 C-141 336.47097742 -140.0907853 334.76964278 -138.54296875 331.609375 C-138.01356689 330.52035889 -137.48416504 329.43134277 -136.9387207 328.30932617 C-136.36081787 327.13474854 -135.78291504 325.9601709 -135.1875 324.75 C-134.58551792 323.51505313 -133.98420793 322.27977844 -133.38354492 321.04418945 C-132.16390544 318.53631303 -130.94183421 316.02964706 -129.71777344 313.52392578 C-127.3934989 308.7557935 -125.09859609 303.97402758 -122.8125 299.1875 C-122.16317505 297.83060059 -122.16317505 297.83060059 -121.50073242 296.44628906 C-118.64387646 290.46815584 -115.80798619 284.48032487 -112.98046875 278.48828125 C-112.23529724 276.91055037 -111.49009822 275.33283248 -110.74487305 273.75512695 C-109.33087296 270.76143639 -107.91986322 267.76636789 -106.51098633 264.77026367 C-106.17077957 264.05508575 -105.83057281 263.33990784 -105.48005676 262.60305786 C-104.73464753 261.01301108 -104.00959656 259.41332397 -103.30082703 257.80661011 C-101.04982527 252.8321558 -98.57828378 248.27995396 -95.49443817 243.78767872 C-80.0444747 220.97163389 -78.23989515 198.86474766 -78.3125 172.12890625 C-78.31469984 171.27530754 -78.31689968 170.42170882 -78.31916618 169.54224348 C-78.36457791 158.02813311 -78.59714175 146.51970765 -78.87298584 135.00915527 C-79.19486286 121.4759574 -79.41270536 107.94120539 -79.53127003 94.40473884 C-79.57982255 89.3555581 -79.68731019 84.31225511 -79.84398556 79.26531422 C-79.93087053 76.14252303 -79.9725774 73.0202473 -80.0030117 69.89644623 C-80.02666806 68.45607789 -80.0693489 67.0158705 -80.13292885 65.57671165 C-80.5981741 54.74417407 -80.5981741 54.74417407 -76.6492157 50.43446159 C-73.85075849 48.37490139 -71.04258313 46.67135372 -68 45 C-66.3851056 43.90291889 -64.77987622 42.79125398 -63.19140625 41.65625 C-61.64971138 40.60230084 -60.10672964 39.55023175 -58.5625 38.5 C-57.73685547 37.93667969 -56.91121094 37.37335938 -56.06054688 36.79296875 C-50.79814298 33.20777581 -45.50926621 29.66466683 -40.203125 26.14453125 C-36.03330016 23.35278267 -31.89090069 20.5219155 -27.75 17.6875 C-26.94377197 17.13618408 -26.13754395 16.58486816 -25.30688477 16.0168457 C-21.29073396 13.26705237 -17.28379186 10.50519222 -13.29296875 7.71875 C-12.55788086 7.20739502 -11.82279297 6.69604004 -11.06542969 6.16918945 C-9.67399529 5.20032583 -8.28520142 4.22765607 -6.89941406 3.25073242 C-2.22362787 0 -2.22362787 0 0 0 Z " fill="#FAFAF8" transform="translate(300,185)"/>
<path d="M0 0 C0 44.88 0 89.76 0 136 C-30.69 136 -61.38 136 -93 136 C-93.226875 124.099375 -93.45375 112.19875 -93.6875 99.9375 C-93.78764404 96.19011475 -93.88778809 92.44272949 -93.9909668 88.58178711 C-94.04064941 83.97961426 -94.04064941 83.97961426 -94.04988098 81.82008362 C-94.06669446 80.32252478 -94.10522887 78.82510852 -94.16133118 77.32850647 C-94.33867303 72.34538543 -94.3485255 67.82587209 -93 63 C-89.74880896 59.58156968 -86.25258329 57.91851705 -82 56 C-80.22603079 54.8271391 -78.4718952 53.62305704 -76.75 52.375 C-75.94046875 51.80394531 -75.1309375 51.23289062 -74.296875 50.64453125 C-72.82170836 49.58833201 -71.35239117 48.52388758 -69.890625 47.44921875 C-65.18802817 44 -65.18802817 44 -63 44 C-63 64.79 -63 85.58 -63 107 C-51.78 107 -40.56 107 -29 107 C-29.0942627 103.06416992 -29.0942627 103.06416992 -29.19042969 99.04882812 C-29.3895678 90.3642039 -29.52193098 81.67947675 -29.62174606 72.99317169 C-29.68428915 67.7279401 -29.76905393 62.46505356 -29.90527344 57.20117188 C-30.03599935 52.11756007 -30.10747498 47.03619774 -30.13852692 41.95103455 C-30.16064272 40.01468989 -30.20383689 38.07846396 -30.26876068 36.14308167 C-30.75729965 20.97148573 -30.75729965 20.97148573 -26.41166687 16.09619141 C-23.34919699 14.03647767 -20.36326116 12.50303755 -17 11 C-15.43105405 9.97232763 -13.87952577 8.91644947 -12.36328125 7.8125 C-11.68458984 7.34199219 -11.00589844 6.87148438 -10.30664062 6.38671875 C-8.93360247 5.43191259 -7.56124562 4.4761262 -6.18945312 3.51953125 C-1.10732887 0 -1.10732887 0 0 0 Z " fill="#F7F8F6" transform="translate(313,444)"/>
<path d="M0 0 C0.66 0 1.32 0 2 0 C2.2550749 12.0042947 2.45042092 24.00794318 2.56993389 36.01439762 C2.62730156 41.58991892 2.70507855 47.16358419 2.82983398 52.73803711 C2.94952191 58.11985369 3.01515794 63.4998878 3.04364967 68.88293266 C3.06394709 70.93446358 3.10358807 72.98589875 3.16303062 75.03666878 C3.61085078 91.12924434 3.61085078 91.12924434 -0.36372375 95.74510193 C-3.1916484 97.56074441 -5.8767895 98.78360992 -9 100 C-10.52892608 100.98847645 -12.03655415 102.01207825 -13.50390625 103.08984375 C-14.18130859 103.56357422 -14.85871094 104.03730469 -15.55664062 104.52539062 C-16.93025858 105.49240696 -18.30259337 106.46124785 -19.67382812 107.43164062 C-24.78633192 111 -24.78633192 111 -27 111 C-27.33 92.85 -27.66 74.7 -28 56 C-36.30690311 61.23433136 -36.30690311 61.23433136 -44.37890625 66.74609375 C-45.66571289 67.6597168 -45.66571289 67.6597168 -46.97851562 68.59179688 C-48.73738449 69.84813178 -50.49515554 71.10600473 -52.25195312 72.36523438 C-53.09822266 72.96529297 -53.94449219 73.56535156 -54.81640625 74.18359375 C-55.57381104 74.72556396 -56.33121582 75.26753418 -57.11157227 75.82592773 C-59 77 -59 77 -61 77 C-60.95003624 78.07542557 -60.95003624 78.07542557 -60.89906311 79.1725769 C-60.59708839 85.9669913 -60.36945968 92.76039189 -60.22281742 99.55981255 C-60.14486692 103.05550594 -60.03946188 106.54561156 -59.8684082 110.03808594 C-58.79426989 132.54997152 -58.79426989 132.54997152 -62.41091919 138.20684814 C-65.80337333 141.57895428 -69.6307505 143.48071051 -74.05799866 145.17398071 C-77.2958914 146.55120008 -79.95985652 148.57624445 -82.8125 150.625 C-87.75494071 154 -87.75494071 154 -90 154 C-90.2552116 142.14336665 -90.45048988 130.28738958 -90.56993389 118.42856598 C-90.62727203 112.92144053 -90.70499411 107.41619793 -90.82983398 101.91015625 C-90.94962864 96.59317128 -91.01518014 91.27799315 -91.04364967 85.95976257 C-91.06392808 83.9341741 -91.10353201 81.90868134 -91.16303062 79.88386536 C-91.6109504 64.00457189 -91.6109504 64.00457189 -87.60015869 59.01377869 C-84.80734435 56.95730456 -82.14293337 55.44678253 -79 54 C-77.82460282 53.23445404 -76.66243507 52.44762702 -75.5234375 51.62890625 C-74.48445313 50.94699219 -73.44546875 50.26507813 -72.375 49.5625 C-56.32243795 38.95710734 -40.4801479 28.0310509 -24.609375 17.15625 C-21.28920605 14.88137275 -17.96572844 12.61140848 -14.640625 10.34375 C-13.76003418 9.74272461 -12.87944336 9.14169922 -11.97216797 8.52246094 C-10.27384352 7.36342395 -8.57497248 6.20518735 -6.87548828 5.04785156 C-6.11993652 4.5319043 -5.36438477 4.01595703 -4.5859375 3.484375 C-3.9161084 3.02772461 -3.2462793 2.57107422 -2.55615234 2.10058594 C-1.03218896 1.08852531 -1.03218896 1.08852531 0 0 Z " fill="#FAFAF8" transform="translate(545,170)"/>
<path d="M0 0 C0 3.12476657 -0.47452492 4.37161882 -1.79296875 7.1328125 C-2.17646484 7.93976563 -2.55996094 8.74671875 -2.95507812 9.578125 C-3.36177734 10.41859375 -3.76847656 11.2590625 -4.1875 12.125 C-4.57486328 12.94226563 -4.96222656 13.75953125 -5.36132812 14.6015625 C-6.54831526 17.08148273 -7.76587745 19.54322035 -9 22 C-9.40436279 22.815896 -9.80872559 23.63179199 -10.2253418 24.47241211 C-12.69087336 29.21202021 -14.88886256 32.29943095 -19.4375 35.3125 C-20.79681641 36.23482422 -20.79681641 36.23482422 -22.18359375 37.17578125 C-25 39 -25 39 -28.13360405 40.71521473 C-31.24546135 42.71920153 -31.24546135 42.71920153 -31.7203846 45.91897869 C-31.70664236 47.06137414 -31.69290012 48.20376959 -31.67874146 49.38078308 C-31.67806168 50.69429749 -31.6773819 52.00781189 -31.67668152 53.36112976 C-31.64575212 54.81522588 -31.61434884 56.26931198 -31.58251953 57.72338867 C-31.57104293 59.25613629 -31.56237976 60.78890718 -31.55632019 62.32168579 C-31.53822909 65.6227127 -31.50216423 68.92288749 -31.45279312 72.22359276 C-31.37674688 77.44777919 -31.35273814 82.67139993 -31.33810425 87.89607239 C-31.28854813 102.75239823 -31.16924156 117.60774103 -30.99707031 132.46313477 C-30.90243682 140.66808868 -30.85118209 148.87220249 -30.84592712 157.07771093 C-30.84000165 162.26699213 -30.78037506 167.45195937 -30.68037724 172.64023721 C-30.63063631 175.87726571 -30.63141571 179.11286069 -30.64606667 182.35017776 C-30.64281908 183.84466197 -30.61914708 185.33927179 -30.5729084 186.83304405 C-30.39121328 192.99417363 -30.24157779 198.09268311 -34.63798141 202.86135292 C-37.56780872 205.23126491 -40.72812937 207.13360298 -44 209 C-45.19118556 209.80660899 -46.37683291 210.62162853 -47.55078125 211.453125 C-48.46214844 212.04609375 -49.37351562 212.6390625 -50.3125 213.25 C-53.64187553 215.43176641 -56.92083819 217.63834037 -60.125 220 C-63 222 -63 222 -65 222 C-65.23369686 199.19086769 -65.40998982 176.38193301 -65.51812172 153.57184601 C-65.56966614 142.98043273 -65.63992613 132.38976368 -65.75439453 121.79882812 C-65.85412892 112.56671636 -65.91859644 103.33514359 -65.94088495 94.10250807 C-65.95391254 89.21443418 -65.9844807 84.32790208 -66.05730057 79.44032288 C-66.12533049 74.83681474 -66.14608751 70.23547858 -66.13107681 65.6315155 C-66.13382142 63.94479553 -66.15363016 62.25800079 -66.19205475 60.57171631 C-66.46767808 47.84860481 -66.46767808 47.84860481 -62.82610703 43.2618866 C-60.3056162 41.21281558 -57.83156374 39.58113348 -55 38 C-53.77255178 37.1617708 -52.5505069 36.31541966 -51.33984375 35.453125 C-50.20841886 34.71461282 -49.07425823 33.98027614 -47.9375 33.25 C-42.40142732 29.62541908 -36.9563594 25.89551481 -31.5625 22.0625 C-25.2278336 17.56260246 -18.85587426 13.12342269 -12.43969727 8.74047852 C-8.2548964 5.87841202 -4.11737463 2.95837071 0 0 Z " fill="#090908" transform="translate(550,325)"/>
<path d="M0 0 C0.25701689 21.91365104 0.45096376 43.82705345 0.56993389 65.74190617 C0.62664378 75.91756143 0.70394912 86.09227999 0.82983398 96.26733398 C0.93951016 105.13649937 1.01044813 114.00498645 1.03497344 122.87481111 C1.04930978 127.5713212 1.08296737 132.26589093 1.16303062 136.96177864 C1.23781634 141.38404068 1.26070749 145.80356794 1.24418449 150.22640228 C1.24720587 151.84745859 1.26902777 153.46860815 1.31126022 155.08911705 C1.43023347 159.89060196 1.38916059 164.35307774 0 169 C-3.26807642 172.37376049 -6.76191176 174.0872893 -11 176 C-12.58158508 177.03872676 -14.14486415 178.10669897 -15.67578125 179.21875 C-16.80693359 180.01708252 -16.80693359 180.01708252 -17.9609375 180.83154297 C-19.12496094 181.6574292 -19.12496094 181.6574292 -20.3125 182.5 C-35.05496775 192.8880214 -49.95014652 203.06201658 -65 213 C-65.33 212.34 -65.66 211.68 -66 211 C-64.61964177 207.13587501 -62.82870312 203.45847938 -61.07055664 199.75292969 C-60.20544619 197.9131648 -59.37709061 196.05970378 -58.54882812 194.203125 C-54.65037685 185.94758112 -49.89625851 178.6789398 -41.01377869 175.22842693 C-38.47926312 174.08576097 -36.8812552 173.06415864 -35 171 C-33.81840314 166.35923557 -34.04350639 161.72615344 -34.17456055 156.97338867 C-34.18496779 155.52754316 -34.19168935 154.08166712 -34.19500732 152.63578796 C-34.2092382 149.5254496 -34.24792143 146.41671564 -34.3051815 143.30687523 C-34.39405119 138.38526864 -34.41864901 133.46462481 -34.43281555 128.54231262 C-34.47774441 116.31595089 -34.60134544 104.09053185 -34.75256348 91.86505127 C-34.8695441 82.36530501 -34.96220135 72.86675537 -34.97864372 63.36623365 C-34.98984604 58.4769207 -35.05212576 53.59179203 -35.15339124 48.70355451 C-35.20521441 45.65571246 -35.21096019 42.60902992 -35.20423889 39.56080818 C-35.21039518 38.15295774 -35.23534111 36.74503782 -35.28096962 35.33791351 C-35.61004025 24.73396397 -35.61004025 24.73396397 -31.62403297 20.44115639 C-28.83256563 18.38772002 -26.03155881 16.6723078 -23 15 C-21.52263352 14.00076728 -20.05385166 12.98846743 -18.6015625 11.953125 C-16.60000405 10.58895604 -14.59513636 9.22976609 -12.58984375 7.87109375 C-9.67878272 5.88653938 -6.88093945 3.9027944 -4.1484375 1.671875 C-2 0 -2 0 0 0 Z " fill="#0D0D0B" transform="translate(284,230)"/>
<path d="M0 0 C1.32 0.33 2.64 0.66 4 1 C4 1.66 4 2.32 4 3 C5.32 3.66 6.64 4.32 8 5 C7.01 6.485 7.01 6.485 6 8 C5.83300768 11.12521833 5.83300768 11.12521833 6 14 C2.78119883 10.2064129 0.3836813 6.34170523 -2 2 C-1.34 2 -0.68 2 0 2 C0 1.34 0 0.68 0 0 Z " fill="#141412" transform="translate(354,260)"/>
<path d="M0 0 C0.99 0.33 1.98 0.66 3 1 C3.25 3.29296875 3.25 3.29296875 3 6 C1.25 7.80078125 1.25 7.80078125 -1 9.3125 C-1.7425 9.82425781 -2.485 10.33601563 -3.25 10.86328125 C-3.8275 11.23839844 -4.405 11.61351562 -5 12 C-3.41037341 7.96479403 -1.71767682 3.98188718 0 0 Z " fill="#1E1F1B" transform="translate(227,422)"/>
<path d="M0 0 C1.32 1.32 2.64 2.64 4 4 C3.34 4.66 2.68 5.32 2 6 C1.62904292 8.42246595 1.62904292 8.42246595 1.5859375 11.2265625 C1.54726563 12.2578125 1.50859375 13.2890625 1.46875 14.3515625 C1.4378125 15.43179687 1.406875 16.51203125 1.375 17.625 C1.33632813 18.71296875 1.29765625 19.8009375 1.2578125 20.921875 C1.16333753 23.61441165 1.07777569 26.30693757 1 29 C0.67 29 0.34 29 0 29 C0 19.43 0 9.86 0 0 Z " fill="#EAEAE8" transform="translate(330,336)"/>
<path d="M0 0 C1.32 0.66 2.64 1.32 4 2 C3.24266726 3.3410477 2.46867264 4.67269781 1.6875 6 C1.25824219 6.7425 0.82898438 7.485 0.38671875 8.25 C-0.07089844 8.8275 -0.52851562 9.405 -1 10 C-1.99 10 -2.98 10 -4 10 C-2.8905928 6.51329166 -1.73662334 3.22515763 0 0 Z " fill="#181816" transform="translate(562,344)"/>
<path d="M0 0 C0.33 0.66 0.66 1.32 1 2 C1.66 2 2.32 2 3 2 C3.3125 4.3125 3.3125 4.3125 3 7 C0.5625 8.6875 0.5625 8.6875 -2 10 C-2.33 10.66 -2.66 11.32 -3 12 C-3.66 11.67 -4.32 11.34 -5 11 C-3.35 7.37 -1.7 3.74 0 0 Z " fill="#161614" transform="translate(605,254)"/>
<path d="M0 0 C2.625 0.9375 2.625 0.9375 5 2 C5 3.98 5 5.96 5 8 C4.01 8 3.02 8 2 8 C0.02 4.535 0.02 4.535 -2 1 C-1.34 0.67 -0.68 0.34 0 0 Z " fill="#161613" transform="translate(308,194)"/>
<path d="M0 0 C1.65 0 3.3 0 5 0 C5.33 2.31 5.66 4.62 6 7 C5.01 7.495 5.01 7.495 4 8 C0 2.25 0 2.25 0 0 Z " fill="#131411" transform="translate(448,508)"/>
<path d="M0 0 C0.66 0.33 1.32 0.66 2 1 C0.02 1.99 0.02 1.99 -2 3 C-1.34 2.01 -0.68 1.02 0 0 Z M-4 3 C-3.34 3.33 -2.68 3.66 -2 4 C-3.65 5.98 -5.3 7.96 -7 10 C-8.32 9.34 -9.64 8.68 -11 8 C-8.69 6.35 -6.38 4.7 -4 3 Z " fill="#1B1C1A" transform="translate(180,509)"/>
<path d="M0 0 C-0.33 1.98 -0.66 3.96 -1 6 C-2.32 6.33 -3.64 6.66 -5 7 C-5.33 5.68 -5.66 4.36 -6 3 C-2.25 0 -2.25 0 0 0 Z " fill="#191917" transform="translate(486,583)"/>
<path d="M0 0 C1.98 0.66 3.96 1.32 6 2 C5.34 3.65 4.68 5.3 4 7 C3.01 6.67 2.02 6.34 1 6 C-0.1875 3.4375 -0.1875 3.4375 -1 1 C-0.67 0.67 -0.34 0.34 0 0 Z " fill="#161613" transform="translate(369,284)"/>
<path d="M0 0 C2 1 2 1 3 3 C1.75108386 3.48198463 0.50081192 3.96045677 -0.75 4.4375 C-1.79414063 4.83775391 -1.79414063 4.83775391 -2.859375 5.24609375 C-4.89059003 5.96146693 -6.9035291 6.51365652 -9 7 C-6.25604436 4.05278838 -3.61662784 1.80831392 0 0 Z " fill="#161815" transform="translate(195,499)"/>
<path d="M0 0 C1.67542976 0.28604898 3.34385343 0.61781233 5 1 C5.33 2.65 5.66 4.3 6 6 C4.68 5.01 3.36 4.02 2 3 C1.67 3.66 1.34 4.32 1 5 C0.34 3.68 -0.32 2.36 -1 1 C-0.67 0.67 -0.34 0.34 0 0 Z " fill="#1A1A17" transform="translate(400,330)"/>
<path d="M0 0 C2.625 0.375 2.625 0.375 5 1 C4.67 1.66 4.34 2.32 4 3 C2.66923011 3.34342449 1.33568021 3.67619874 0 4 C-0.66 4.66 -1.32 5.32 -2 6 C-2 2 -2 2 0 0 Z " fill="#131310" transform="translate(452,323)"/>
<path d="M0 0 C0.66 0.66 1.32 1.32 2 2 C1.67 2.99 1.34 3.98 1 5 C-0.98 5.33 -2.96 5.66 -5 6 C-3.86695008 2.60085025 -2.87481525 1.94745549 0 0 Z " fill="#181A17" transform="translate(542,543)"/>
<path d="M0 0 C2.86724686 0.57344937 3.8614515 0.8614515 6 3 C4.35 3.66 2.7 4.32 1 5 C0.67 3.35 0.34 1.7 0 0 Z " fill="#060704" transform="translate(400,500)"/>
<path d="M0 0 C3 1 3 1 4.1875 3.0625 C4.455625 3.701875 4.72375 4.34125 5 5 C4.01 5.33 3.02 5.66 2 6 C1.01 5.34 0.02 4.68 -1 4 C-0.67 2.68 -0.34 1.36 0 0 Z " fill="#181816" transform="translate(322,273)"/>
<path d="M0 0 C3 2 3 2 4 5 C2.35 5.33 0.7 5.66 -1 6 C-1 3 -1 3 0 0 Z " fill="#030402" transform="translate(197,499)"/>
<path d="M0 0 C0.99 0.33 1.98 0.66 3 1 C1.60210322 3.79579355 -0.2628997 4.59807058 -3 6 C-3.66 5.67 -4.32 5.34 -5 5 C-2.25 1.125 -2.25 1.125 0 0 Z " fill="#1B1B18" transform="translate(580,312)"/>
<path d="M0 0 C1.65 0.33 3.3 0.66 5 1 C3.68 2.32 2.36 3.64 1 5 C0.34 4.67 -0.32 4.34 -1 4 C-0.67 2.68 -0.34 1.36 0 0 Z " fill="#161613" transform="translate(490,539)"/>
<path d="M0 0 C1.65 1.65 3.3 3.3 5 5 C4.01 6.485 4.01 6.485 3 8 C0.37613513 4.93882432 0 4.26826873 0 0 Z " fill="#181816" transform="translate(403,497)"/>
<path d="M0 0 C-0.1875 1.875 -0.1875 1.875 -1 4 C-3.5625 5.25 -3.5625 5.25 -6 6 C-6 5.01 -6 4.02 -6 3 C-2.66666667 0 -2.66666667 0 0 0 Z " fill="#191B19" transform="translate(204,494)"/>
<path d="M0 0 C0.66 0.33 1.32 0.66 2 1 C1.8125 2.8125 1.8125 2.8125 1 5 C-1.5625 6.75 -1.5625 6.75 -4 8 C-2.66666667 5.33333333 -1.33333333 2.66666667 0 0 Z " fill="#EDEFEA" transform="translate(538,351)"/>
<path d="M0 0 C0.99 0 1.98 0 3 0 C3.33 0.99 3.66 1.98 4 3 C1.525 4.485 1.525 4.485 -1 6 C-0.67 4.02 -0.34 2.04 0 0 Z " fill="#161614" transform="translate(514,522)"/>
<path d="M0 0 C2.0625 0.4375 2.0625 0.4375 4 1 C3.67 2.32 3.34 3.64 3 5 C2.01 4.67 1.02 4.34 0 4 C-0.33 3.01 -0.66 2.02 -1 1 C-0.67 0.67 -0.34 0.34 0 0 Z " fill="#181916" transform="translate(209,489)"/>
<path d="M0 0 C2.125 0.9375 2.125 0.9375 4 2 C3.67 2.99 3.34 3.98 3 5 C1.0625 4.6875 1.0625 4.6875 -1 4 C-1.33 3.01 -1.66 2.02 -2 1 C-1.34 0.67 -0.68 0.34 0 0 Z " fill="#171815" transform="translate(417,459)"/>
<path d="M0 0 C0.33 0.99 0.66 1.98 1 3 C-0.98 4.32 -2.96 5.64 -5 7 C-5 6.01 -5 5.02 -5 4 C-2.5 1.8125 -2.5 1.8125 0 0 Z " fill="#EBECE8" transform="translate(318,411)"/>
<path d="M0 0 C0.66 0.33 1.32 0.66 2 1 C0.68 2.65 -0.64 4.3 -2 6 C-3.32 5.67 -4.64 5.34 -6 5 C-5.195625 4.360625 -4.39125 3.72125 -3.5625 3.0625 C-1.7249496 1.59396498 -1.7249496 1.59396498 0 0 Z " fill="#E5E5E2" transform="translate(501,319)"/>
<path d="M0 0 C0.99 0.99 1.98 1.98 3 3 C1.125 4.0625 1.125 4.0625 -1 5 C-1.66 4.67 -2.32 4.34 -3 4 C-2.67 3.01 -2.34 2.02 -2 1 C-1.34 0.67 -0.68 0.34 0 0 Z " fill="#181817" transform="translate(504,313)"/>
<path d="M0 0 C0.66 0.33 1.32 0.66 2 1 C-1.465 3.97 -1.465 3.97 -5 7 C-5.33 6.01 -5.66 5.02 -6 4 C-4.02 2.68 -2.04 1.36 0 0 Z " fill="#20221F" transform="translate(533,271)"/>
<path d="M0 0 C0.99 0.33 1.98 0.66 3 1 C2.34 2.65 1.68 4.3 1 6 C-0.32 5.34 -1.64 4.68 -3 4 C-2.01 3.67 -1.02 3.34 0 3 C0 2.01 0 1.02 0 0 Z " fill="#161615" transform="translate(253,210)"/>
</svg>
