<?xml version="1.0" encoding="UTF-8"?>
<svg version="1.1" xmlns="http://www.w3.org/2000/svg" width="671" height="671">
<path d="M0 0 C221.43 0 442.86 0 671 0 C671 221.43 671 442.86 671 671 C449.57 671 228.14 671 0 671 C0 449.57 0 228.14 0 0 Z " fill="#FCFCFC" transform="translate(0,0)"/>
<path d="M0 0 C3.38595766 1.4204381 4.88497036 4.74485477 6.75976562 7.75439453 C7.65077208 9.13910194 8.54270035 10.52321662 9.43554688 11.90673828 C9.86689941 12.5820459 10.29825195 13.25735352 10.74267578 13.953125 C12.2502223 16.28563618 13.8360131 18.55501748 15.44726562 20.81689453 C18.26936561 24.81267162 20.99369951 28.86561182 23.69726562 32.94189453 C27.72633019 39.01640097 31.8312661 45.03434153 35.97265625 51.03271484 C38.75123798 55.06225122 41.49183688 59.11286007 44.19726562 63.19189453 C47.06253844 67.51006326 49.99542721 71.77095928 52.97851562 76.00830078 C59.03153018 84.64345449 64.99191383 93.34237389 70.82226562 102.12939453 C76.76846867 111.09047291 82.85754147 119.95298351 88.94726562 128.81689453 C89.43372559 129.52523437 89.92018555 130.23357422 90.42138672 130.96337891 C94.58867622 137.0306528 98.76115517 143.0943493 102.93554688 149.15673828 C103.42909668 149.87385986 103.92264648 150.59098145 104.43115234 151.32983398 C105.36859561 152.69191355 106.30639452 154.05374846 107.24462891 155.4152832 C108.08625006 156.63828879 108.92463919 157.86352686 109.75927734 159.09130859 C110.5507233 160.2409058 111.35981172 161.37855564 112.18603516 162.50341797 C113.32617187 164.09033203 113.32617187 164.09033203 114.94726562 166.81689453 C113.78790787 170.29496778 113.06448436 170.68691628 110.08789062 172.62939453 C109.3015625 173.14759766 108.51523437 173.66580078 107.70507812 174.19970703 C106.8775 174.73337891 106.04992187 175.26705078 105.19726562 175.81689453 C104.38515625 176.35056641 103.57304687 176.88423828 102.73632812 177.43408203 C98.85338252 179.97633632 94.95351593 182.4717724 90.94726562 184.81689453 C82.12429007 172.24911906 73.43324595 159.61388241 64.94726562 146.81689453 C59.37485883 138.41442356 53.77642226 130.0446515 47.94726562 121.81689453 C43.40399644 115.40414615 38.99666578 108.91370856 34.65258789 102.36523438 C31.63487417 97.82451374 28.54576934 93.34071054 25.40039062 88.88720703 C23.53455433 86.22889188 21.7487394 83.51910519 19.94726562 80.81689453 C18.29726563 78.50689453 16.64726562 76.19689453 14.94726562 73.81689453 C14.61726562 112.75689453 14.28726563 151.69689453 13.94726562 191.81689453 C18.89726562 188.51689453 23.84726562 185.21689453 28.94726562 181.81689453 C29.60726562 181.81689453 30.26726562 181.81689453 30.94726562 181.81689453 C30.94726562 171.58689453 30.94726562 161.35689453 30.94726562 150.81689453 C34.77146063 154.64108954 37.74522774 158.14540033 40.69726562 162.56689453 C41.15335205 163.24010742 41.60943848 163.91332031 42.0793457 164.60693359 C43.11440874 166.13513301 44.14722357 167.66485669 45.17822266 169.19580078 C47.16403088 172.1380637 49.16224 175.07167156 51.16210938 178.00439453 C58.14074057 188.24236024 65.09072387 198.49664871 71.94726562 208.81689453 C72.52903564 209.69249023 73.11080566 210.56808594 73.71020508 211.47021484 C74.54878052 212.73236816 74.54878052 212.73236816 75.40429688 214.02001953 C81.21909053 222.7694935 87.06500387 231.49242594 93.03979492 240.13354492 C96.52418651 245.1795722 99.93015925 250.27446044 103.31933594 255.38476562 C105.98409394 259.39460203 108.69698043 263.36516896 111.44726562 267.31689453 C114.5841891 271.82485099 117.66229321 276.36519492 120.69726562 280.94189453 C124.56212666 286.76966606 128.48993671 292.55154039 132.44726562 298.31689453 C137.2802635 305.3600919 142.0620094 312.43398065 146.77929688 319.55517578 C148.13986161 321.60215155 149.51074179 323.64234759 150.89648438 325.67236328 C151.44949219 326.48318359 152.0025 327.29400391 152.57226562 328.12939453 C153.03890625 328.80615234 153.50554687 329.48291016 153.98632812 330.18017578 C154.94726562 331.81689453 154.94726562 331.81689453 154.94726562 333.81689453 C155.60726563 333.81689453 156.26726562 333.81689453 156.94726562 333.81689453 C156.94726562 291.57689453 156.94726562 249.33689453 156.94726562 205.81689453 C140.28178739 214.52205622 140.28178739 214.52205622 139.16601562 225.98486328 C139.00394297 228.63207774 139.00394297 228.63207774 139.18554688 230.93603516 C139.22760254 231.76723877 139.2696582 232.59844238 139.31298828 233.45483398 C139.3572998 234.29618896 139.40161133 235.13754395 139.44726562 236.00439453 C139.47936629 237.73669564 139.50416416 239.46914822 139.52148438 241.20166016 C139.57930184 245.41320465 139.73561757 249.6103895 139.94726562 253.81689453 C136.14483525 252.54941774 135.73022881 251.26608321 133.69726562 247.87939453 C130.30814775 242.37030543 126.68179482 237.09513308 122.94726562 231.81689453 C116.48047503 222.56998836 110.17903441 213.2230925 103.94726562 203.81689453 C105.45956981 199.39162858 108.9013883 197.50458914 112.63476562 195.06689453 C114.09122994 194.09142878 115.54691254 193.1147952 117.00195312 192.13720703 C117.7944043 191.60772461 118.58685547 191.07824219 119.40332031 190.53271484 C124.0606641 187.39146608 128.65516003 184.15970939 133.25976562 180.94189453 C141.0608223 175.50496854 148.88762864 170.10844281 156.7434082 164.75097656 C163.00355883 160.47603986 169.22852942 156.15180418 175.44726562 151.81689453 C186.34958241 144.21872101 197.30766314 136.7051575 208.28857422 129.22119141 C217.14973873 123.18040582 225.98452396 117.10699794 234.75976562 110.94189453 C242.63116801 105.41194638 250.56116256 99.97388932 258.51806641 94.56787109 C266.217438 89.33040567 273.86395611 84.01951588 281.50146484 78.69238281 C290.61081633 72.34296567 299.77030344 66.06808067 308.94726562 59.81689453 C309.60726563 60.14689453 310.26726562 60.47689453 310.94726562 60.81689453 C310.62975342 61.44668213 310.31224121 62.07646973 309.98510742 62.7253418 C308.53284197 65.60894821 307.08378137 68.49415385 305.63476562 71.37939453 C304.88549805 72.86536133 304.88549805 72.86536133 304.12109375 74.38134766 C303.63447266 75.35136719 303.14785156 76.32138672 302.64648438 77.32080078 C301.97879028 78.64833374 301.97879028 78.64833374 301.29760742 80.00268555 C300.35840535 81.96004991 299.47206091 83.94329594 298.62817383 85.94360352 C296.41790226 91.15875224 293.85951004 96.20807209 291.35351562 101.28564453 C290.80675171 102.39758179 290.25998779 103.50951904 289.69665527 104.65515137 C288.24226517 107.61260068 286.78649782 110.56936588 285.32983398 113.5256958 C273.17876717 137.89088747 273.17876717 137.89088747 261.5831604 162.52131653 C260.30040557 165.10547944 258.95981333 167.40543928 257.41952515 169.82865906 C247.41302531 186.54937376 248.7433554 203.7940069 249.12657595 222.60680223 C249.2066744 227.23386126 249.21881476 231.86104551 249.23568726 236.48869324 C249.29800518 250.19778677 249.46871438 263.90527774 249.6519165 277.61322021 C249.79342438 288.31579615 249.90671526 299.01719568 249.93865716 309.72072715 C249.95821917 315.21241997 250.03434056 320.69944543 250.15437722 326.18981898 C250.2167985 329.60033708 250.22918824 333.00971898 250.22802544 336.42075157 C250.23764627 337.99637498 250.26783518 339.57203322 250.32052422 341.14680481 C250.47322382 345.90064507 250.41818296 350.23599364 248.94726562 354.81689453 C245.37434469 358.46695883 241.48621805 360.56169374 236.94726562 362.81689453 C235.30091694 363.91635976 233.67013749 365.04017241 232.06835938 366.20361328 C231.30265625 366.74244141 230.53695313 367.28126953 229.74804688 367.83642578 C228.96816406 368.38685547 228.18828125 368.93728516 227.38476562 369.50439453 C220.76983516 374.1548911 214.1293825 378.76347626 207.44726562 383.31689453 C200.62944305 387.96720126 193.83854512 392.65436663 187.07226562 397.37939453 C186.23373047 397.96333984 185.39519531 398.54728516 184.53125 399.14892578 C183.74298828 399.70064453 182.95472656 400.25236328 182.14257812 400.82080078 C181.4068457 401.33529785 180.67111328 401.84979492 179.91308594 402.37988281 C177.74887537 403.91823042 177.74887537 403.91823042 175.12695312 406.28173828 C172.94726562 407.81689453 172.94726562 407.81689453 170.96386719 407.6184082 C168.50387775 406.64066664 167.87748734 405.76344331 166.50195312 403.52783203 C166.06987549 402.84100342 165.63779785 402.1541748 165.19262695 401.4465332 C164.74040771 400.70250244 164.28818848 399.95847168 163.82226562 399.19189453 C162.84542199 397.6326607 161.86753655 396.07407913 160.88867188 394.51611328 C160.3977002 393.72769043 159.90672852 392.93926758 159.40087891 392.12695312 C157.25063121 388.70981445 155.01169618 385.35506343 152.75976562 382.00439453 C151.9354232 380.77400863 151.11120211 379.54354143 150.28710938 378.31298828 C149.89378418 377.72630371 149.50045898 377.13961914 149.09521484 376.53515625 C147.99937193 374.89488777 146.9125405 373.24860949 145.82617188 371.60205078 C142.61401449 366.73685334 139.34361313 361.94807051 135.88476562 357.25439453 C132.62869658 352.82410955 129.64044079 348.28253592 126.72070312 343.62548828 C121.48480625 335.33339609 115.89441013 327.27962112 110.29492188 319.23095703 C107.8163543 315.64675902 105.41284858 312.01444365 103.00976562 308.37939453 C99.76042471 303.46449908 96.41141756 298.64497707 92.94726562 293.87939453 C88.86038596 288.24588935 85.14187281 282.43454784 81.49291992 276.51000977 C78.173122 271.13168738 74.63867559 265.94777776 70.94726562 260.81689453 C66.4162833 254.43232852 62.04020518 247.95949067 57.72070312 241.43115234 C55.11393275 237.51106245 52.42631306 233.67168538 49.63476562 229.87939453 C40.94726562 218.07285295 40.94726562 218.07285295 40.94726562 214.81689453 C36.39925306 217.3410415 32.15613154 219.99614032 27.94726562 223.06689453 C13.16175299 233.7573599 -1.90176725 244.05826077 -16.9921875 254.31176758 C-23.04693935 258.43188102 -29.06165532 262.6048155 -35.05273438 266.81689453 C-44.81666287 273.68089642 -54.67628318 280.40007843 -64.54589844 287.11083984 C-74.81873086 294.1021286 -85.02135001 301.18904539 -95.18969727 308.33129883 C-102.55590534 313.4939103 -109.98967765 318.554097 -117.43359375 323.60375977 C-123.05369252 327.42528511 -128.5980841 331.31198328 -134.02929688 335.39892578 C-135.97275431 336.76084672 -137.9028567 337.81977932 -140.05273438 338.81689453 C-139.38774083 335.79634038 -138.39539752 333.14757566 -137.11132812 330.33642578 C-136.70076172 329.43657959 -136.29019531 328.5367334 -135.8671875 327.60961914 C-135.41279297 326.62614502 -134.95839844 325.6426709 -134.49023438 324.62939453 C-134.01134766 323.58855713 -133.53246094 322.54771973 -133.0390625 321.4753418 C-127.16966194 308.79799031 -121.02863247 296.2516096 -114.91001892 283.6933136 C-110.23586403 274.09422723 -105.64314423 264.45623615 -101.05273438 254.81689453 C-100.08789752 252.79215166 -99.12305363 250.76741215 -98.15820312 248.74267578 C-95.78824011 243.76811607 -93.41981875 238.79282461 -91.05273438 233.81689453 C-90.39273438 233.81689453 -89.73273438 233.81689453 -89.05273438 233.81689453 C-88.94589577 232.55279251 -88.94589577 232.55279251 -88.8368988 231.26315308 C-88.04711093 227.79218054 -86.72161156 225.64533558 -84.77615261 222.71313286 C-76.48064233 209.41225323 -78.17323561 194.1750044 -78.64953423 179.14184189 C-78.81134046 173.96963376 -78.88459196 168.79833388 -78.94264221 163.62405396 C-79.11895917 148.92658393 -79.38182235 134.23280433 -79.79614258 119.54003906 C-80.02514254 111.39250296 -80.16646208 103.24811593 -80.21385819 95.09745133 C-80.24285031 90.79974251 -80.31612574 86.51343912 -80.5003643 82.21935654 C-81.58208008 56.29856044 -81.58208008 56.29856044 -75.71220779 48.84482574 C-70.05359094 43.77220267 -63.76733316 40.34376247 -56.89335823 37.1896553 C-53.01838487 35.31703447 -49.69855671 32.93573933 -46.30273438 30.31689453 C-41.44370231 26.77276839 -36.48512037 23.40431924 -31.46679688 20.09033203 C-27.02760295 17.14810724 -22.63573967 14.13631304 -18.24023438 11.12939453 C-17.43948486 10.5824292 -16.63873535 10.03546387 -15.8137207 9.47192383 C-14.653927 8.67782104 -14.653927 8.67782104 -13.47070312 7.86767578 C-12.34801025 7.10318115 -12.34801025 7.10318115 -11.20263672 6.32324219 C-9.79928139 5.33996915 -8.41758007 4.32482529 -7.06298828 3.27539062 C-2.5261716 -0.22533643 -2.5261716 -0.22533643 0 0 Z " fill="#060707" transform="translate(246.052734375,124.18310546875)"/>
<path d="M0 0 C0 44.55 0 89.1 0 135 C-30.36 135 -60.72 135 -92 135 C-92.226875 123.12 -92.45375 111.24 -92.6875 99 C-92.78764404 95.26171875 -92.88778809 91.5234375 -92.9909668 87.671875 C-93.04064941 83.07421875 -93.04064941 83.07421875 -93.04988098 80.91552734 C-93.06667369 79.42134473 -93.1051642 77.92730303 -93.16133118 76.43408203 C-93.6109285 63.84173857 -93.6109285 63.84173857 -89.63627625 59.29760742 C-86.84213651 57.24616013 -84.0659904 55.60751013 -81 54 C-79.48327655 52.95963268 -77.97848811 51.90122455 -76.49609375 50.8125 C-75.1442442 49.87353694 -73.79140327 48.93599934 -72.4375 48 C-71.39239258 47.26716797 -71.39239258 47.26716797 -70.32617188 46.51953125 C-65.23418899 43 -65.23418899 43 -63 43 C-63 63.46 -63 83.92 -63 105 C-51.78 105 -40.56 105 -29 105 C-29.08378906 102.4221167 -29.16757813 99.8442334 -29.25390625 97.18823242 C-29.51985207 88.63982175 -29.69607003 80.09122056 -29.82899475 71.53975964 C-29.91226961 66.35768343 -30.02503119 61.17986749 -30.20703125 56.00024414 C-30.3818155 50.99423819 -30.47672038 45.99230706 -30.51803589 40.98348427 C-30.54744347 39.08002848 -30.60488598 37.17677919 -30.69168091 35.27507591 C-31.32633303 20.78379575 -31.32633303 20.78379575 -27.4468689 16.14145279 C-23.6461594 12.79115914 -19.43596956 10.35338451 -14.94560242 8.04631996 C-12.169057 6.55312954 -9.69703828 4.71230627 -7.1875 2.8125 C-3.36065574 0 -3.36065574 0 0 0 Z " fill="#080908" transform="translate(260,384)"/>
<path d="M0 0 C0.66 0 1.32 0 2 0 C2.27839871 11.98692661 2.49143442 23.97308104 2.62174606 35.96258545 C2.6843012 41.53041996 2.76909226 47.09603864 2.90527344 52.66259766 C3.03594995 58.03797035 3.10746591 63.4112167 3.13852692 68.78805542 C3.160651 70.83602381 3.20386058 72.88387937 3.26876068 74.93093872 C3.75734665 90.98460687 3.75734665 90.98460687 -0.59725952 95.9786377 C-3.66131277 98.04183989 -6.61464372 99.54186577 -10 101 C-11.48386215 101.95486473 -12.95128438 102.93708106 -14.3828125 103.96875 C-15.011875 104.39414063 -15.6409375 104.81953125 -16.2890625 105.2578125 C-17.55432497 106.1138837 -18.81721189 106.97347293 -20.078125 107.8359375 C-24.77508734 111 -24.77508734 111 -27 111 C-27 92.52 -27 74.04 -27 55 C-43.04527551 65.93446599 -43.04527551 65.93446599 -59 77 C-59.66 77 -60.32 77 -61 77 C-60.95114655 77.70584732 -60.90229309 78.41169464 -60.85195923 79.13893127 C-60.40747978 85.85661517 -60.07451125 92.57206597 -59.86013222 99.30075169 C-59.74612987 102.76059654 -59.59247344 106.20814145 -59.34033203 109.66088867 C-57.76287799 131.83607991 -57.76287799 131.83607991 -63.11755371 138.72381592 C-68.23897243 143.36568814 -73.97641661 146.70981384 -80.20761108 149.65196228 C-83.57621097 151.27816831 -86.76662535 153.11966074 -90 155 C-90.3951641 143.08277428 -90.69656357 131.16712297 -90.88080692 119.24466324 C-90.96927573 113.70713047 -91.08906603 108.17410048 -91.2824707 102.63916016 C-91.46821604 97.28948157 -91.56902344 91.94410907 -91.61291313 86.59145355 C-91.64415196 84.55760619 -91.70517097 82.52397628 -91.79741096 80.49198151 C-92.47142623 65.01782462 -92.47142623 65.01782462 -88.34929466 59.98434639 C-84.32146129 56.34322224 -79.84732357 53.6485284 -75.06304359 51.11929893 C-72.16130417 49.54496776 -69.54305626 47.69218567 -66.85546875 45.77734375 C-64.96722083 44.49581048 -63.07788418 43.21587999 -61.1875 41.9375 C-60.14835449 41.23270508 -59.10920898 40.52791016 -58.03857422 39.80175781 C-55.83362864 38.30644612 -53.62833601 36.81166515 -51.42236328 35.31787109 C-45.48744858 31.29887686 -39.55637277 27.27421885 -33.625 23.25 C-32.74397614 22.65229294 -32.74397614 22.65229294 -31.84515381 22.04251099 C-24.16131574 16.82922829 -16.48054532 11.61149704 -8.8125 6.375 C-8.02246582 5.83649414 -7.23243164 5.29798828 -6.41845703 4.74316406 C-3.05467728 2.56461315 -3.05467728 2.56461315 0 0 Z " fill="#070707" transform="translate(493,108)"/>
<path d="M0 0 C0.495 0.99 0.495 0.99 1 2 C0.05957031 4.24316406 0.05957031 4.24316406 -1.421875 7.015625 C-1.95296875 8.01980469 -2.4840625 9.02398437 -3.03125 10.05859375 C-3.5984375 11.11175781 -4.165625 12.16492188 -4.75 13.25 C-5.84926604 15.31754476 -6.94823309 17.38524852 -8.046875 19.453125 C-8.57007324 20.42467529 -9.09327148 21.39622559 -9.63232422 22.3972168 C-10.67764963 24.38654457 -11.63643063 26.42157495 -12.5546875 28.47265625 C-14.36300243 31.63476371 -16.38339325 33.13435619 -19.375 35.1875 C-20.31085938 35.84105469 -21.24671875 36.49460937 -22.2109375 37.16796875 C-25 39 -25 39 -27.63941097 40.22042561 C-30.28059604 41.806683 -30.28059604 41.806683 -30.59733677 44.81434155 C-30.58451632 45.96633195 -30.57169588 47.11832235 -30.55848694 48.30522156 C-30.55837583 48.94734158 -30.55826471 49.5894616 -30.55815023 50.2510398 C-30.55198666 52.40738225 -30.51025171 54.56159411 -30.46899414 56.7175293 C-30.45780294 58.26160709 -30.44897993 59.80570361 -30.44235229 61.34980774 C-30.42401798 64.67802082 -30.39091195 68.00565062 -30.34706306 71.33362389 C-30.27984045 76.59945099 -30.25795715 81.86485347 -30.24473572 87.13105774 C-30.20074081 102.10671288 -30.10576487 117.08156214 -29.94213867 132.05639648 C-29.85218132 140.32509004 -29.80533666 148.59290141 -29.80525678 156.86209613 C-29.8027441 162.09420907 -29.74719965 167.32219736 -29.65224946 172.55340707 C-29.6057569 175.81555605 -29.60973751 179.07622016 -29.62777328 182.33859062 C-29.62611306 183.84637013 -29.60399788 185.35429367 -29.55945015 186.86141586 C-29.43056569 191.44759954 -29.52208983 195.59761118 -31 200 C-34.5819122 203.60633048 -38.50469316 205.70977965 -43 208 C-44.84593023 209.25166668 -46.67518574 210.52877105 -48.4765625 211.84375 C-49.75853516 212.75253906 -49.75853516 212.75253906 -51.06640625 213.6796875 C-52.81283331 214.92218369 -54.5575533 216.16708192 -56.30078125 217.4140625 C-57.56341797 218.30738281 -57.56341797 218.30738281 -58.8515625 219.21875 C-59.60260254 219.75435547 -60.35364258 220.28996094 -61.12744141 220.84179688 C-63 222 -63 222 -65 222 C-65.46812266 199.164868 -65.82032317 176.33053155 -66.03624344 153.49156761 C-66.13918691 142.88564633 -66.27939685 132.28271324 -66.50878906 121.67871094 C-66.70874191 112.43114383 -66.83729939 103.18574075 -66.8817699 93.93607199 C-66.90775445 89.04128718 -66.96833955 84.1526899 -67.11460114 79.25989914 C-67.96873369 49.55557136 -67.96873369 49.55557136 -63.06204796 42.02618027 C-58.51316229 37.38419823 -53.40957452 34.54881588 -47.44763374 32.07866383 C-43.80405037 30.47294909 -40.72201636 28.23555116 -37.51953125 25.8984375 C-36.39784111 25.13467734 -35.27355359 24.37470281 -34.14550781 23.62036133 C-22.6635793 15.88656586 -11.25806247 8.05755614 0 0 Z " fill="#F7F7F7" transform="translate(497,264)"/>
<path d="M0 0 C0.23358739 21.93097728 0.40993597 43.86174953 0.51812172 65.79371834 C0.56968948 75.97715966 0.63999366 86.15982817 0.75439453 96.34277344 C0.85405797 105.21815403 0.91857948 114.092975 0.94088495 122.96889961 C0.95392471 127.66914066 0.984569 132.3677808 1.05730057 137.0675087 C1.12521905 141.49210472 1.14611041 145.91444217 1.13107681 150.33950996 C1.13382645 151.96257243 1.15370266 153.58571091 1.19205475 155.20832253 C1.29844265 159.94188745 1.28356612 164.40033234 0 169 C-2.97251714 172.08224116 -6.07695729 173.42662031 -10 175 C-11.5472485 175.97761694 -13.07500473 176.98761693 -14.5703125 178.04296875 C-15.31297363 178.55351807 -16.05563477 179.06406738 -16.82080078 179.59008789 C-17.58118652 180.11723389 -18.34157227 180.64437988 -19.125 181.1875 C-19.94339355 181.75138428 -20.76178711 182.31526855 -21.60498047 182.89624023 C-23.27519714 184.04720431 -24.94464076 185.19929106 -26.61328125 186.35253906 C-28.80111895 187.86271999 -30.99303776 189.36665549 -33.1875 190.8671875 C-40.95448365 196.18153985 -48.67024946 201.56224942 -56.33056641 207.02954102 C-59.81197148 209.50396625 -63.29237414 211.86901504 -67 214 C-64.96134358 207.65451311 -62.33252015 201.68022876 -59.5625 195.625 C-59.09134766 194.52671875 -58.62019531 193.4284375 -58.13476562 192.296875 C-54.30062645 184.00200582 -49.72559354 179.74627699 -42 175 C-40.80982432 174.17049259 -39.62172368 173.33798267 -38.4375 172.5 C-36 171 -36 171 -34 171 C-34.00829614 170.24370017 -34.01659227 169.48740034 -34.02513981 168.70818233 C-34.22399373 150.296423 -34.3728761 131.88487828 -34.46630955 113.47227383 C-34.51269592 104.56795601 -34.57592234 95.66435544 -34.67895508 86.76049805 C-34.76872789 78.99882607 -34.82673944 71.23767355 -34.84679645 63.47549683 C-34.85851952 59.36604597 -34.88601747 55.25808098 -34.95157051 51.14910698 C-35.01281729 47.27857581 -35.03147543 43.41013714 -35.01796913 39.5391674 C-35.02043847 38.12132883 -35.03825605 36.70341794 -35.07284927 35.2859993 C-35.32112935 24.58509372 -35.32112935 24.58509372 -32.02269268 20.6276226 C-29.75745341 18.84259057 -27.51992914 17.39395892 -25 16 C-24.10821045 15.3596582 -23.2164209 14.71931641 -22.29760742 14.05957031 C-21.21249878 13.32625488 -21.21249878 13.32625488 -20.10546875 12.578125 C-19.29529297 12.02769531 -18.48511719 11.47726563 -17.65039062 10.91015625 C-16.83763672 10.36230469 -16.02488281 9.81445312 -15.1875 9.25 C-13.53461574 8.13100632 -11.88225288 7.01124198 -10.23046875 5.890625 C-9.15381958 5.16407715 -9.15381958 5.16407715 -8.05541992 4.42285156 C-6.62528889 3.43285232 -5.22837845 2.39383285 -3.8605957 1.31933594 C-2 0 -2 0 0 0 Z " fill="#F7F7F7" transform="translate(231,169)"/>
<path d="M0 0 C0.66 0.33 1.32 0.66 2 1 C1.026056 1.79189539 1.026056 1.79189539 0.03243637 2.59978867 C-2.59884586 5.70720867 -2.50600059 7.36618408 -2.51898193 11.40338135 C-2.53289474 12.72148804 -2.54680756 14.03959473 -2.56114197 15.39764404 C-2.55642897 16.85656862 -2.55133502 18.315492 -2.54589844 19.77441406 C-2.55463321 21.31194099 -2.56511867 22.84945882 -2.57722473 24.38696289 C-2.6051174 28.5602188 -2.60848871 32.73317857 -2.60750484 36.90651417 C-2.61063116 41.26812711 -2.63624346 45.62960612 -2.65948486 49.9911499 C-2.70007006 58.25001847 -2.72039147 66.50880804 -2.73345876 74.76776099 C-2.74932029 84.17040601 -2.78773231 93.57291642 -2.82805204 102.97548342 C-2.91048545 122.3169464 -2.96455604 141.65839671 -3 161 C-3.33 161 -3.66 161 -4 161 C-4.09336369 140.45121497 -4.16394008 119.90246482 -4.20724869 99.35351086 C-4.22789044 89.81266892 -4.25604176 80.27195862 -4.30175781 70.73120117 C-4.3415763 62.41729071 -4.36742107 54.10347556 -4.37635398 45.7894724 C-4.38157722 41.38557694 -4.39388693 36.98195419 -4.42292023 32.57814598 C-4.45001071 28.43557914 -4.45845802 24.29339812 -4.45243073 20.15075111 C-4.45353383 18.62812327 -4.46152581 17.10548292 -4.4768219 15.58293152 C-4.49665166 13.50782761 -4.49196678 11.43419064 -4.48101807 9.35905457 C-4.48470524 8.19667361 -4.48839241 7.03429266 -4.49219131 5.83668804 C-4 3 -4 3 -1.96993637 1.10255909 C-1.31985737 0.73871459 -0.66977837 0.37487009 0 0 Z " fill="#232323" transform="translate(470,303)"/>
<path d="M0 0 C0.66 0.33 1.32 0.66 2 1 C1.35125916 1.48970276 0.70251831 1.97940552 0.03411865 2.48394775 C-2.75719248 5.93659032 -2.57330832 9.00435305 -2.54589844 13.25683594 C-2.55623611 14.08647354 -2.56657379 14.91611115 -2.57722473 15.77088928 C-2.60668628 18.50891519 -2.60815259 21.24620295 -2.609375 23.984375 C-2.6243544 25.88439344 -2.64108105 27.78439885 -2.65948486 29.68438721 C-2.70319755 34.68207391 -2.72316617 39.67958495 -2.73822021 44.6774292 C-2.75777716 49.77854821 -2.79974875 54.87947714 -2.83984375 59.98046875 C-2.91518832 69.98692059 -2.96545409 79.99332997 -3 90 C-3.33 90 -3.66 90 -4 90 C-4.09258562 78.70849142 -4.16370685 67.41707279 -4.20724869 56.12526226 C-4.22814419 50.88228152 -4.25649772 45.63956003 -4.30175781 40.39672852 C-4.34514545 35.33928179 -4.36912231 30.28208477 -4.37950897 25.22446632 C-4.38691309 23.29268269 -4.40137124 21.36091309 -4.42292023 19.42923546 C-4.45186026 16.72815544 -4.45595998 14.02811382 -4.45410156 11.3269043 C-4.46848267 10.52417587 -4.48286377 9.72144745 -4.49768066 8.89439392 C-4.45705348 3.45526215 -4.45705348 3.45526215 -1.97161865 0.97956848 C-1.3209845 0.65631088 -0.67035034 0.33305328 0 0 Z " fill="#252625" transform="translate(235,399)"/>
<path d="M0 0 C0.66 0.33 1.32 0.66 2 1 C0.78437378 1.97876099 0.78437378 1.97876099 -0.45581055 2.97729492 C-3.63910134 6.75930465 -3.73145104 9.63381472 -3.70703125 14.36328125 C-3.72215256 15.15526413 -3.73727386 15.94724701 -3.75285339 16.76322937 C-3.7956638 19.27994403 -3.80456132 21.79545782 -3.8125 24.3125 C-3.83564969 26.02412032 -3.86101603 27.73571219 -3.88867188 29.44726562 C-3.9514577 33.63161625 -3.98384499 37.81522004 -4 42 C-4.99 41.67 -5.98 41.34 -7 41 C-6.34 41 -5.68 41 -5 41 C-5.03927612 39.35016113 -5.03927612 39.35016113 -5.0793457 37.66699219 C-5.16991878 33.58207582 -5.22727433 29.49724797 -5.2746582 25.41162109 C-5.29978641 23.64421662 -5.33389516 21.8769159 -5.37719727 20.10986328 C-5.43792735 17.56777351 -5.46622515 15.02705835 -5.48828125 12.484375 C-5.51408768 11.69569031 -5.5398941 10.90700562 -5.56648254 10.09442139 C-5.56762695 7.85058594 -5.56762695 7.85058594 -5 4 C-2.46948242 1.46972656 -2.46948242 1.46972656 0 0 Z " fill="#D5D5D4" transform="translate(391,337)"/>
<path d="M0 0 C0.99 0.99 1.98 1.98 3 3 C2.67 3.33 2.34 3.66 2 4 C1.84193469 5.92478813 1.748865 7.8549921 1.68359375 9.78515625 C1.64169922 10.95498047 1.59980469 12.12480469 1.55664062 13.33007812 C1.51732422 14.56177734 1.47800781 15.79347656 1.4375 17.0625 C1.39431641 18.29806641 1.35113281 19.53363281 1.30664062 20.80664062 C1.20015802 23.87097335 1.09814576 26.93539073 1 30 C0.67 30 0.34 30 0 30 C0 20.1 0 10.2 0 0 Z " fill="#363636" transform="translate(277,275)"/>
</svg>
